<?xml version="1.0" standalone="no"?>
<!DOCTYPE svg PUBLIC "-//W3C//DTD SVG 20010904//EN"
 "http://www.w3.org/TR/2001/REC-SVG-20010904/DTD/svg10.dtd">
<svg version="1.0" xmlns="http://www.w3.org/2000/svg"
 width="900.000000pt" height="705.000000pt" viewBox="0 0 900.000000 705.000000"
 preserveAspectRatio="xMidYMid meet">

<g transform="translate(0.000000,705.000000) scale(0.100000,-0.100000)"
fill="#000000" stroke="none">
<path d="M0 3525 l0 -3525 4500 0 4500 0 0 3525 0 3525 -4500 0 -4500 0 0
-3525z m4985 3295 c3 -5 15 -10 26 -10 11 0 19 -7 19 -18 0 -9 9 -35 21 -56
20 -38 23 -83 4 -79 -5 2 -10 11 -11 21 -1 24 -54 123 -74 139 -10 8 -11 12
-3 13 6 0 15 -4 18 -10z m112 -22 c-3 -8 -6 -5 -6 6 -1 11 2 17 5 13 3 -3 4
-12 1 -19z m233 -29 c0 -5 -9 -9 -19 -9 -10 0 -22 -8 -27 -17 -4 -10 -8 -20
-9 -23 -2 -3 -6 -15 -10 -27 -8 -24 -45 -32 -45 -10 1 27 46 91 70 97 27 7 40
4 40 -11z m-230 -4 c0 -8 -4 -15 -10 -15 -5 0 -10 7 -10 15 0 8 5 15 10 15 6
0 10 -7 10 -15z m-100 -20 c0 -8 -4 -15 -10 -15 -5 0 -10 7 -10 15 0 8 5 15
10 15 6 0 10 -7 10 -15z m-101 -44 c16 -24 15 -24 -13 -17 -23 6 -27 4 -23 -8
4 -9 2 -16 -3 -16 -6 0 -10 16 -10 36 0 42 23 44 49 5z m226 -32 c7 -38 9 -40
35 -34 25 5 28 3 32 -23 5 -34 0 -54 -12 -47 -4 3 -13 -2 -20 -10 -16 -19 -30
-19 -30 0 0 8 8 15 18 16 13 0 12 3 -5 11 -13 6 -23 18 -23 28 0 9 -4 20 -9
26 -5 5 -12 29 -16 54 -7 39 -6 43 8 32 8 -7 18 -31 22 -53z m-191 -10 c-3 -5
-10 -7 -15 -3 -5 3 -7 10 -3 15 3 5 10 7 15 3 5 -3 7 -10 3 -15z m44 -16 c13
-41 10 -48 -14 -39 -13 5 -14 9 -4 22 10 11 10 18 2 26 -14 14 -16 28 -4 28 5
0 14 -17 20 -37z m202 27 c0 -5 -4 -10 -10 -10 -5 0 -10 5 -10 10 0 6 5 10 10
10 6 0 10 -4 10 -10z m60 -47 c0 -25 -1 -26 -16 -11 -9 9 -13 21 -10 27 13 20
26 11 26 -16z m-152 -33 c3 -30 2 -32 -12 -21 -9 8 -16 20 -16 28 0 9 -5 11
-12 7 -9 -5 -8 -2 1 9 20 25 35 16 39 -23z m-48 -69 c37 -38 57 -77 46 -88 -3
-3 -12 2 -21 11 -9 9 -26 21 -38 27 -19 11 -19 12 -3 24 13 10 14 15 5 21 -7
4 -15 2 -17 -4 -6 -20 -22 -3 -22 24 0 32 6 31 50 -15z m450 19 c0 -5 -5 -10
-11 -10 -5 0 -7 5 -4 10 3 6 8 10 11 10 2 0 4 -4 4 -10z m-40 -40 c-6 -11 -15
-20 -20 -20 -5 0 -18 -9 -29 -21 -13 -14 -24 -18 -34 -12 -13 7 -12 12 8 35
19 23 32 29 78 37 4 0 3 -8 -3 -19z m-220 5 c0 -3 -9 -22 -20 -42 -11 -21 -20
-49 -20 -63 0 -14 -3 -35 -6 -48 l-7 -23 -19 21 c-15 16 -17 25 -9 33 6 6 11
25 11 43 0 34 33 84 56 84 8 0 14 -2 14 -5z m80 -25 c0 -5 -4 -10 -10 -10 -5
0 -10 5 -10 10 0 6 5 10 10 10 6 0 10 -4 10 -10z m-659 -19 c13 -10 40 -26 59
-36 39 -19 96 -79 106 -110 3 -11 17 -34 30 -51 22 -30 22 -32 5 -48 -19 -18
-31 -12 -31 15 0 34 -78 125 -133 154 -61 32 -97 63 -97 82 0 19 33 16 61 -6z
m-575 -43 c-47 -47 -48 -61 -6 -83 35 -18 40 -19 40 -2 0 40 151 117 170 87 4
-7 16 -9 28 -6 11 4 23 2 27 -4 3 -5 3 -10 -2 -10 -37 -1 -135 -20 -145 -29
-70 -58 -113 -81 -151 -81 -27 0 -90 -32 -175 -87 -35 -23 -87 -47 -115 -54
-48 -11 -123 -46 -155 -71 -7 -6 -15 -8 -19 -4 -7 7 26 46 40 46 5 0 19 9 31
21 21 20 60 38 132 60 42 13 78 52 72 81 -4 20 0 23 27 25 37 2 113 47 158 95
31 33 64 57 79 58 4 0 -12 -19 -36 -42z m924 22 c8 -15 8 -18 -3 -14 -8 3 -14
11 -14 19 0 20 4 19 17 -5z m740 -46 c-29 -55 -107 -131 -121 -117 -7 7 11 32
63 86 40 42 74 74 76 73 1 -2 -6 -21 -18 -42z m-910 26 c5 0 28 -18 52 -40 43
-39 43 -39 16 -40 -17 0 -31 7 -38 19 -5 11 -24 28 -40 38 -31 18 -42 40 -14
29 9 -3 19 -6 24 -6z m-375 -29 c-6 -12 42 -32 60 -25 17 7 73 -36 68 -52 -2
-6 24 -40 57 -75 60 -64 95 -117 84 -128 -3 -3 -13 4 -22 16 -10 11 -29 37
-44 56 -20 25 -37 36 -67 41 -48 7 -91 42 -125 100 -23 40 -32 91 -14 80 5 -3
6 -9 3 -13z m1367 -11 c7 -11 16 -20 19 -20 4 0 5 9 2 20 -4 14 0 20 11 20 33
0 18 -50 -29 -96 -54 -54 -73 -57 -39 -7 24 36 25 46 9 86 -10 24 12 22 27 -3z
m-402 -121 c0 -10 4 -20 9 -23 4 -3 11 -28 15 -55 4 -28 11 -53 16 -56 13 -8
13 -55 0 -55 -5 0 -10 12 -10 28 -1 26 -1 26 -15 8 -8 -10 -12 -22 -10 -27 3
-4 1 -10 -5 -14 -21 -13 -42 -74 -35 -104 8 -35 -10 -50 -25 -21 -8 16 -8 25
0 35 6 7 10 19 9 27 -1 7 0 20 4 28 21 56 27 92 27 157 0 40 -4 81 -9 91 -21
38 -41 86 -41 96 1 18 70 -97 70 -115z m870 30 c55 -32 104 -59 110 -59 7 0
44 -15 83 -34 40 -19 80 -37 90 -40 9 -3 17 -10 17 -16 0 -18 -57 5 -280 113
-81 40 -192 112 -184 120 8 8 37 -7 164 -84z m-966 18 c-8 -22 -8 -22 -14 3
-4 14 -4 31 -2 39 9 24 24 -17 16 -42z m724 4 c17 -11 33 -21 37 -21 16 0 95
-44 95 -53 0 -13 -37 -2 -116 34 -52 24 -81 31 -118 29 -34 -1 -46 2 -41 10
21 34 96 35 143 1z m-1764 -6 c-4 -8 -12 -15 -20 -15 -17 0 -18 17 -1 23 22 9
27 7 21 -8z m631 -1 c21 -14 25 -24 25 -63 0 -26 -4 -51 -8 -56 -5 -6 -15 -29
-22 -52 -16 -50 -35 -58 -26 -10 4 17 9 60 13 95 4 52 2 66 -12 82 -22 24 -4
26 30 4z m-1085 -4 c0 -5 -17 -17 -37 -25 -20 -9 -52 -27 -71 -41 -18 -14 -36
-23 -40 -19 -4 4 -1 10 6 13 8 2 28 17 45 32 53 45 97 64 97 40z m870 -59 c63
-63 102 -124 98 -152 -2 -20 -10 -13 -45 41 -23 36 -65 87 -93 113 -27 26 -50
52 -50 58 0 16 40 -10 90 -60z m1514 39 c19 -19 0 -18 -39 1 l-40 20 35 -6
c19 -3 39 -10 44 -15z m-484 -10 c0 -5 -9 -14 -19 -20 -11 -5 -22 -18 -26 -27
-3 -10 -16 -26 -29 -35 l-23 -17 18 36 c10 19 26 44 35 54 18 20 44 26 44 9z
m356 -36 c33 -13 67 -24 74 -24 7 0 28 -11 46 -25 18 -14 37 -25 43 -25 6 0
11 -4 11 -10 0 -16 -19 -12 -49 10 -15 10 -39 21 -53 24 -15 2 -37 11 -50 19
-12 8 -35 18 -51 21 -15 4 -42 16 -60 27 l-32 21 30 -7 c17 -4 57 -17 91 -31z
m-998 -55 c1 -45 -13 -79 -31 -79 -3 0 -4 33 -4 74 1 65 3 73 17 66 12 -6 17
-24 18 -61z m-59 19 l-2 -43 -6 35 c-7 33 -5 50 5 50 2 0 3 -19 3 -42z m-72
10 c-3 -8 -6 -5 -6 6 -1 11 2 17 5 13 3 -3 4 -12 1 -19z m610 0 c-3 -8 -6 -5
-6 6 -1 11 2 17 5 13 3 -3 4 -12 1 -19z m211 -10 c-3 -7 -22 -22 -43 -33 -78
-41 -177 -171 -161 -212 10 -24 -16 -167 -32 -183 -8 -8 -12 -10 -8 -3 3 6 2
15 -4 18 -10 6 -7 86 5 180 7 56 80 166 125 188 8 5 33 19 55 32 45 26 69 31
63 13z m672 -31 c34 -15 100 -77 100 -93 0 -4 -12 4 -27 18 -16 14 -42 33 -58
41 -17 8 -39 25 -50 38 -11 12 -15 20 -10 17 6 -2 26 -12 45 -21z m-1480 4 c0
-6 -4 -13 -10 -16 -5 -3 -10 1 -10 9 0 9 5 16 10 16 6 0 10 -4 10 -9z m1395
-21 c3 -5 14 -10 24 -10 18 0 75 -51 92 -83 9 -17 8 -17 -10 -7 -12 6 -21 15
-21 19 0 14 -119 71 -125 60 -8 -12 -35 -12 -35 1 0 6 9 10 19 10 11 0 23 5
26 10 3 6 10 10 15 10 5 0 12 -4 15 -10z m-1160 -21 c11 -17 -1 -21 -15 -4 -8
9 -8 15 -2 15 6 0 14 -5 17 -11z m-235 -9 c0 -5 -2 -10 -4 -10 -3 0 -8 5 -11
10 -3 6 -1 10 4 10 6 0 11 -4 11 -10z m-1578 -45 c20 -14 41 -25 46 -25 5 0
17 -9 27 -20 10 -11 22 -20 26 -20 4 0 11 9 14 20 9 29 19 25 51 -21 32 -47
45 -92 19 -65 -8 8 -24 18 -35 21 -11 4 -18 11 -15 16 3 5 0 6 -8 4 -7 -3 -38
8 -68 25 -29 17 -61 33 -70 36 -17 6 -45 54 -31 54 4 0 24 -11 44 -25z m1238
5 c0 -5 -4 -10 -10 -10 -5 0 -10 5 -10 10 0 6 5 10 10 10 6 0 10 -4 10 -10z
m2100 -9 c0 -23 -64 -66 -85 -57 -8 3 -15 0 -15 -5 0 -13 -78 -89 -91 -89 -5
0 3 18 17 40 15 22 30 40 34 40 4 0 12 18 19 40 13 43 30 52 38 20 7 -26 13
-25 43 4 31 30 40 32 40 7z m-1708 -3 c8 -21 -2 -38 -23 -38 -19 0 -27 29 -12
43 11 11 31 8 35 -5z m-210 -64 c-7 -12 -9 -8 -10 18 -1 26 1 30 9 16 6 -11 6
-24 1 -34z m652 -20 c0 -51 -3 -59 -21 -62 -19 -3 -20 1 -16 50 6 68 10 81 26
75 8 -2 12 -24 11 -63z m-2136 8 c7 -23 -16 -12 -34 15 l-18 28 24 -16 c13 -9
26 -21 28 -27z m3536 -1 c3 -4 -12 -24 -34 -44 -22 -19 -45 -47 -51 -61 -7
-14 -16 -26 -20 -26 -4 0 -27 -39 -51 -87 -36 -73 -59 -104 -137 -180 -52 -51
-102 -93 -113 -93 -10 0 -18 -7 -18 -15 0 -9 -12 -20 -27 -26 -16 -6 -44 -19
-64 -29 -26 -13 -41 -15 -54 -7 -13 7 -27 5 -51 -7 -19 -8 -34 -12 -34 -7 0 5
19 19 43 30 23 12 71 48 107 81 36 33 73 63 83 66 9 3 17 10 17 16 0 6 72 82
160 170 88 87 160 163 160 169 0 13 51 58 67 59 6 0 14 -4 17 -9z m-1139 -23
c-8 -27 -22 -44 -30 -37 -7 7 18 59 28 59 5 0 5 -10 2 -22z m1172 -30 c-12
-23 -28 -43 -34 -46 -21 -6 -15 14 12 46 14 17 25 35 25 42 0 6 4 9 9 5 6 -3
0 -23 -12 -47z m-3608 23 c31 -31 98 -125 105 -147 3 -11 26 -39 51 -63 25
-24 45 -47 45 -53 0 -6 11 -23 24 -39 15 -17 28 -49 32 -77 3 -26 10 -51 14
-57 3 -5 14 -30 23 -55 9 -25 22 -58 28 -75 7 -16 13 -37 14 -45 1 -8 6 -26
10 -40 7 -22 6 -23 -9 -8 -9 9 -16 23 -16 31 0 8 -22 58 -49 112 -27 53 -49
105 -49 114 2 27 -22 89 -37 95 -8 3 -15 11 -15 19 0 16 -57 73 -65 65 -3 -3
2 -13 11 -22 11 -12 13 -21 7 -27 -13 -13 -43 26 -43 53 0 28 -58 143 -92 181
-19 22 -30 57 -17 57 5 0 17 -8 28 -19z m140 -85 c37 -45 68 -103 59 -111 -12
-12 -34 8 -52 46 -11 22 -30 51 -43 65 -13 14 -23 29 -23 35 0 5 -4 9 -10 9
-5 0 -10 7 -10 15 0 8 -8 15 -17 16 -15 0 -15 2 2 9 16 7 24 3 40 -17 11 -14
35 -44 54 -67z m1821 18 c0 -18 4 -35 9 -39 6 -3 13 -27 16 -53 6 -43 20 -97
45 -178 10 -30 13 -45 26 -140 7 -56 5 -60 -55 -81 -51 -18 -74 -3 -65 45 l6
37 -26 -25 c-26 -25 -38 -74 -36 -138 1 -34 -25 -56 -40 -32 -7 12 -7 22 6
118 5 36 3 60 -6 77 l-13 24 -18 -21 c-12 -13 -17 -29 -13 -44 6 -22 3 -24
-36 -24 -33 0 -43 4 -47 20 -3 11 -8 20 -12 20 -3 0 -7 20 -9 44 -2 36 4 54
28 89 16 25 30 50 30 56 0 6 7 11 15 11 21 0 19 16 -5 40 -25 25 -26 40 -2 40
16 0 52 57 52 81 0 12 25 39 36 39 4 0 12 -7 19 -16 11 -15 14 -15 43 0 20 10
32 24 32 36 0 24 -8 25 -32 4 -14 -13 -21 -14 -32 -5 -8 7 -20 9 -27 5 -7 -4
-4 7 6 24 10 17 22 29 27 26 4 -3 8 1 8 10 0 23 23 25 48 3 14 -13 22 -32 22
-53z m-412 37 c6 -16 24 -48 41 -72 20 -26 27 -45 21 -49 -6 -4 -8 -14 -4 -23
8 -21 -4 -22 -27 -1 -10 9 -15 23 -12 32 4 9 2 13 -4 9 -19 -12 -46 32 -51 83
-4 40 -2 50 11 50 8 0 20 -13 25 -29z m170 -15 c3 -13 -1 -14 -20 -7 -13 4
-24 16 -26 25 -3 13 1 14 20 7 13 -4 24 -16 26 -25z m-1784 -51 c51 -107 47
-141 -11 -96 -13 11 -30 18 -37 15 -18 -7 -33 15 -41 59 -7 37 -7 38 13 26 11
-7 20 -17 19 -22 -1 -5 3 -11 10 -14 11 -4 10 40 -3 85 -4 13 -2 22 4 22 6 0
27 -34 46 -75z m2113 33 c-3 -8 -6 -5 -6 6 -1 11 2 17 5 13 3 -3 4 -12 1 -19z
m417 -31 c-4 -12 -12 -26 -18 -32 -15 -14 -46 -18 -46 -5 0 5 4 10 8 10 4 0
16 14 26 30 19 33 41 31 30 -3z m-358 6 c-4 -23 -23 -36 -29 -19 -4 10 -1 13
9 9 24 -9 16 7 -8 17 -22 8 -22 9 3 7 16 -1 26 -7 25 -14z m1464 -4 c0 -6 -7
-23 -15 -37 -8 -15 -26 -54 -40 -87 -15 -33 -30 -68 -36 -77 -5 -10 -9 -23 -9
-29 0 -13 -31 -82 -41 -89 -6 -4 -16 -53 -21 -102 -1 -10 -5 -18 -8 -18 -4 0
-7 -13 -7 -29 0 -41 -88 -212 -130 -252 -38 -36 -36 -26 8 31 26 34 52 113 41
125 -9 9 -22 5 -22 -7 0 -6 -6 -19 -14 -27 -7 -9 -18 -29 -24 -46 -11 -29 -11
-28 -6 10 3 22 14 59 25 83 11 23 24 65 30 93 16 76 55 163 105 240 25 38 50
71 55 75 5 3 15 20 23 38 31 75 86 142 86 105z m-3276 -99 c6 0 47 -38 92 -85
51 -53 90 -85 103 -85 31 0 25 -17 -10 -29 -25 -9 -38 -8 -65 5 -19 9 -34 20
-34 25 0 5 -15 15 -32 23 -52 22 -137 113 -136 144 1 15 -3 38 -7 51 -7 23 -4
22 36 -12 23 -20 47 -37 53 -37z m3186 34 c-18 -21 -24 -10 -8 15 7 12 14 17
16 11 2 -6 -2 -17 -8 -26z m400 1 c49 -52 55 -175 15 -287 -9 -23 -19 -51 -22
-60 -3 -10 -9 -18 -13 -18 -4 0 -15 -18 -24 -40 -9 -22 -20 -40 -26 -40 -5 0
-10 -6 -10 -14 0 -8 -9 -18 -20 -21 -11 -3 -20 -12 -20 -20 0 -16 35 -29 50
-20 5 3 10 2 10 -2 0 -12 -56 -44 -70 -41 -6 2 -18 -7 -27 -19 -14 -21 -14
-23 12 -33 15 -6 31 -7 37 -4 6 4 9 1 6 -7 -3 -8 -24 -16 -54 -19 -32 -3 -48
-9 -46 -17 1 -7 -4 -13 -11 -13 -25 0 -27 12 -7 40 11 16 20 35 20 43 0 8 11
22 25 31 17 11 25 26 25 46 0 17 9 39 23 52 12 13 30 49 40 80 10 32 22 60 27
63 16 10 11 25 -5 19 -8 -4 -15 -1 -15 5 0 6 5 11 11 11 7 0 9 9 6 22 -3 12
-2 42 3 67 11 54 18 120 19 179 1 48 8 52 41 17z m-3866 -1 c3 -8 2 -12 -4 -9
-6 3 -10 10 -10 16 0 14 7 11 14 -7z m2416 -15 c0 -5 -9 -9 -20 -9 -11 0 -20
6 -20 14 0 9 7 12 20 9 11 -3 20 -9 20 -14z m-260 -8 c0 -11 -4 -22 -9 -25
-11 -7 -20 14 -13 32 7 19 22 14 22 -7z m-100 -7 c0 -8 -4 -12 -10 -9 -5 3
-10 10 -10 16 0 5 5 9 10 9 6 0 10 -7 10 -16z m-2292 -11 c-2 -31 22 -130 41
-170 10 -21 22 -58 26 -83 7 -41 61 -140 76 -140 3 0 4 11 1 25 -6 35 9 30 36
-12 25 -39 23 -75 -3 -53 -10 9 -15 9 -15 1 0 -6 9 -16 20 -23 12 -8 20 -24
20 -39 0 -32 29 -48 46 -24 10 14 12 13 17 -4 2 -11 -2 -29 -9 -40 -13 -18
-12 -21 13 -35 26 -14 27 -15 6 -16 -13 0 -23 -6 -23 -14 0 -16 53 -31 70 -21
6 4 10 -6 10 -25 0 -38 16 -70 34 -70 8 0 23 -8 35 -17 17 -15 20 -25 15 -55
-4 -21 -11 -38 -16 -38 -5 0 -6 9 -3 20 6 19 3 20 -34 14 -22 -4 -52 -3 -67 0
-24 6 -25 9 -12 22 8 8 24 16 36 17 20 1 33 17 15 17 -5 0 -29 19 -55 43 -42
38 -59 66 -57 90 1 5 -10 21 -24 35 -14 15 -28 41 -31 57 -4 17 -18 44 -31 59
-14 16 -25 35 -25 43 0 7 -4 13 -8 13 -25 0 -124 207 -124 260 0 14 -7 39 -16
55 -8 17 -19 38 -24 48 -5 10 -6 23 -2 30 15 25 38 47 50 47 7 0 12 -8 12 -17z
m3901 -50 c-9 -16 -15 -20 -20 -11 -4 6 0 26 9 42 13 26 17 28 20 12 2 -10 -2
-29 -9 -43z m-3690 1 c3 -16 1 -17 -13 -5 -19 16 -21 34 -3 29 6 -3 14 -13 16
-24z m2218 -26 c-3 -7 -5 -2 -5 12 0 14 2 19 5 13 2 -7 2 -19 0 -25z m-2380
-30 c-3 -8 -6 -5 -6 6 -1 11 2 17 5 13 3 -3 4 -12 1 -19z m3933 0 c0 -7 -5
-20 -10 -28 -8 -12 -10 -9 -10 13 0 15 5 27 10 27 6 0 10 -6 10 -12z m-1542
-28 c-7 -10 -14 -17 -17 -15 -4 4 18 35 25 35 2 0 -1 -9 -8 -20z m-548 -55
c-7 -9 -15 -13 -18 -10 -3 2 1 11 8 20 7 9 15 13 18 10 3 -2 -1 -11 -8 -20z
m660 -15 c-6 -11 -16 -20 -22 -20 -15 0 -88 -70 -88 -84 0 -5 -7 -17 -16 -27
-9 -10 -26 -37 -39 -61 -12 -24 -30 -44 -39 -46 -14 -3 -14 1 2 36 9 21 36 61
60 89 23 28 42 54 42 57 0 12 53 65 61 61 4 -3 10 -1 14 5 3 5 13 10 21 10 12
0 12 -4 4 -20z m-880 -5 c7 -8 9 -15 6 -15 -4 0 -14 7 -22 15 -9 8 -11 15 -6
15 5 0 15 -7 22 -15z m-855 -44 c28 -19 63 -48 79 -63 16 -15 32 -25 36 -23 4
2 12 -7 18 -20 7 -14 16 -25 21 -25 6 0 19 -9 30 -21 12 -13 21 -17 26 -10 9
15 62 -13 103 -55 18 -19 36 -34 40 -34 4 0 18 -12 31 -25 13 -14 28 -25 35
-25 6 0 20 -17 31 -38 19 -34 24 -37 59 -35 32 2 48 -5 89 -38 27 -21 54 -39
58 -39 5 0 9 -4 9 -10 0 -5 -9 -10 -20 -10 -11 0 -20 5 -20 10 0 6 -6 10 -13
10 -8 0 -24 11 -37 25 -23 25 -50 33 -50 16 0 -5 18 -25 40 -45 22 -20 36 -36
31 -36 -5 0 -16 7 -24 15 -8 8 -18 11 -21 8 -4 -4 -17 3 -29 15 -49 47 -160
147 -186 166 -15 12 -36 31 -48 42 -11 12 -43 35 -69 50 -27 16 -72 47 -101
69 -91 71 -145 108 -174 119 -27 10 -38 34 -23 49 8 7 11 6 79 -42z m1055 19
c0 -21 -15 -27 -25 -10 -7 12 2 30 16 30 5 0 9 -9 9 -20z m-1960 -15 c0 -8 -8
-19 -18 -24 -27 -15 -155 -148 -171 -179 -8 -15 -29 -45 -48 -68 -18 -23 -33
-44 -33 -48 0 -4 -11 -22 -24 -39 -13 -18 -33 -49 -45 -69 -53 -95 -64 -113
-86 -142 -12 -17 -28 -48 -34 -68 -15 -45 -47 -88 -67 -88 -19 0 -18 14 2 31
9 7 25 33 37 58 11 25 26 53 32 61 6 8 18 31 25 50 19 48 91 174 101 178 5 2
9 9 9 15 0 6 20 37 45 68 25 32 45 61 45 66 0 5 22 33 50 63 27 30 50 60 50
66 0 11 62 69 83 77 24 10 47 7 47 -8z m513 -55 c6 -14 13 -28 15 -32 2 -5 -1
-8 -6 -8 -11 0 -29 41 -37 85 -5 29 -5 29 6 5 6 -14 16 -36 22 -50z m1316 43
c20 -14 46 -44 56 -67 11 -22 35 -55 53 -74 19 -21 32 -45 32 -61 0 -15 6 -33
13 -40 10 -11 9 -13 -6 -7 -10 3 -22 6 -27 6 -5 0 -8 12 -7 27 1 19 -5 30 -22
39 -25 13 -60 67 -61 94 0 9 -18 34 -40 55 -59 58 -54 74 9 28z m2421 3 c0 -3
-4 -8 -10 -11 -5 -3 -10 -1 -10 4 0 6 5 11 10 11 6 0 10 -2 10 -4z m-2470 -43
c0 -13 -3 -13 -15 -3 -8 7 -15 19 -15 27 0 13 3 13 15 3 8 -7 15 -19 15 -27z
m805 -18 c-14 -26 -25 -57 -25 -69 0 -30 -77 -125 -102 -126 -8 0 9 61 19 69
5 3 19 26 32 51 27 50 91 133 98 127 2 -3 -8 -26 -22 -52z m-440 25 c3 -5 -1
-10 -10 -10 -9 0 -13 5 -10 10 3 6 8 10 10 10 2 0 7 -4 10 -10z m-325 -14 c0
-2 -7 -7 -16 -10 -8 -3 -12 -2 -9 4 6 10 25 14 25 6z m2504 -33 c52 -57 139
-164 161 -198 19 -30 32 -55 76 -150 12 -27 27 -53 32 -56 5 -3 8 -9 7 -13 -3
-18 14 -77 26 -87 8 -6 14 -19 14 -28 0 -9 6 -27 13 -41 7 -14 21 -52 31 -85
10 -33 27 -80 36 -105 36 -89 59 -156 69 -195 17 -71 39 -178 50 -240 6 -33
20 -109 31 -170 27 -149 56 -523 41 -538 -15 -15 -25 -1 -28 41 -4 74 -13 168
-19 192 -7 29 -23 156 -29 225 -7 82 -16 136 -34 215 -10 41 -28 120 -41 175
-21 95 -75 283 -90 315 -3 8 -15 30 -26 49 -14 25 -16 35 -6 38 8 3 5 11 -10
24 -13 10 -19 18 -14 19 5 0 3 7 -4 15 -11 14 -46 130 -57 190 -3 17 -11 37
-18 45 -6 8 -29 46 -49 85 -50 92 -119 186 -183 251 -29 29 -53 55 -53 58 0
20 45 0 74 -31z m-2339 17 c-3 -5 -11 -10 -16 -10 -6 0 -7 5 -4 10 3 6 11 10
16 10 6 0 7 -4 4 -10z m-137 -70 c22 -33 41 -57 44 -55 9 9 40 -33 33 -44 -10
-16 -33 -13 -81 11 -60 29 -94 104 -62 136 19 19 25 15 66 -48z m1432 11 c0
-5 -7 -11 -15 -15 -8 -3 -15 -13 -15 -21 0 -9 -4 -13 -10 -10 -5 3 -10 2 -10
-3 0 -6 -13 -15 -30 -21 -43 -15 -40 10 7 48 36 30 73 41 73 22z m-2726 -17
c8 -21 8 -24 -3 -24 -5 0 -11 9 -14 20 -6 24 8 27 17 4z m1816 2 c0 -13 -88
-51 -98 -42 -5 6 31 42 49 49 26 10 49 7 49 -7z m-100 -17 c0 -4 -3 -10 -8
-13 -9 -5 -44 19 -36 26 7 8 44 -3 44 -13z m-1945 -39 c3 -5 2 -10 -4 -10 -5
0 -13 5 -16 10 -3 6 -2 10 4 10 5 0 13 -4 16 -10z m1777 -21 c25 16 32 9 24
-24 -5 -20 -11 -24 -29 -21 -34 6 -61 18 -69 30 -15 21 -8 25 23 14 24 -8 37
-8 51 1z m1030 -21 c-3 -25 -14 -40 -43 -60 -22 -16 -44 -28 -49 -28 -6 0 -10
-4 -10 -9 0 -5 -8 -12 -19 -16 -10 -3 -30 -16 -43 -28 -13 -12 -37 -29 -54
-37 -36 -18 -93 -58 -117 -82 -18 -18 -30 -22 -55 -19 -7 1 -22 -5 -34 -14
-25 -17 -48 -20 -48 -6 0 5 33 32 73 60 80 56 75 52 138 103 25 20 72 51 105
68 32 17 81 47 108 66 26 19 49 34 50 34 1 0 0 -15 -2 -32z m-762 13 c0 -33
-114 -66 -132 -39 -14 22 -9 28 20 22 15 -2 38 2 52 10 29 16 60 20 60 7z
m817 -16 c-4 -8 -11 -15 -17 -15 -6 0 -6 7 2 20 14 22 24 19 15 -5z m-987 -25
c0 -5 -4 -10 -10 -10 -5 0 -10 5 -10 10 0 6 5 10 10 10 6 0 10 -4 10 -10z
m-170 -15 c19 -23 8 -37 -18 -20 -12 9 -22 20 -22 26 0 14 26 11 40 -6z m165
-34 c7 -12 -12 -24 -25 -16 -11 7 -4 25 10 25 5 0 11 -4 15 -9z m165 -11 c0
-5 -5 -10 -11 -10 -5 0 -7 5 -4 10 3 6 8 10 11 10 2 0 4 -4 4 -10z m-100 -16
c0 -2 -7 -4 -15 -4 -8 0 -15 4 -15 10 0 5 7 7 15 4 8 -4 15 -8 15 -10z m-176
-11 c4 -5 33 -8 64 -8 l57 0 -2 -46 c-2 -40 1 -48 22 -59 14 -7 25 -17 25 -22
0 -11 -37 -10 -44 1 -3 4 -19 11 -36 14 -35 7 -39 22 -9 30 28 8 17 23 -34 45
-40 18 -80 52 -60 52 5 0 13 -3 17 -7z m214 -5 c-6 -18 -28 -21 -28 -4 0 9 7
16 16 16 9 0 14 -5 12 -12z m1672 -43 c-3 -4 6 -12 19 -17 32 -12 14 -31 -29
-30 -20 0 -30 -4 -30 -14 0 -17 -31 -19 -48 -2 -19 19 -14 38 10 38 12 0 18 3
15 7 -13 12 14 31 41 29 15 -2 25 -7 22 -11z m-1956 -4 c6 -10 -20 -35 -46
-44 -24 -9 -23 2 4 30 23 25 34 28 42 14z m1486 -53 c0 -78 -12 -188 -20 -188
-6 0 -7 85 -2 203 3 57 22 44 22 -15z m-1190 28 c0 -3 -4 -8 -10 -11 -5 -3
-10 -1 -10 4 0 6 5 11 10 11 6 0 10 -2 10 -4z m1769 -46 c-6 -16 -17 -30 -25
-30 -20 0 -17 13 6 38 28 29 31 28 19 -8z m-2063 -15 c-11 -8 -22 -12 -25 -9
-6 6 19 24 34 24 6 -1 1 -7 -9 -15z m137 -6 c-6 -6 -19 -9 -29 -6 -16 4 -15 5
4 6 12 0 22 6 22 13 0 6 3 8 7 5 4 -4 2 -12 -4 -18z m-478 -49 c17 -14 42 -32
57 -40 15 -7 25 -17 22 -22 -3 -5 -15 -2 -25 8 -15 14 -19 14 -19 3 0 -8 5
-20 12 -27 26 -26 -13 -12 -67 24 -56 37 -68 54 -39 54 13 0 14 3 4 15 -9 11
-16 12 -31 2 -14 -9 -21 -9 -31 1 -9 9 -7 12 10 12 12 0 22 4 22 10 0 14 50
-9 85 -40z m525 40 c0 -5 -7 -7 -15 -4 -8 4 -15 8 -15 10 0 2 7 4 15 4 8 0 15
-4 15 -10z m1729 -26 c3 -2 0 -9 -5 -14 -13 -13 -54 -1 -54 17 0 12 7 13 27 8
16 -4 30 -9 32 -11z m131 -5 c0 -11 -42 -101 -62 -134 -39 -61 -40 -62 -33
-27 4 21 3 32 -5 32 -6 0 -9 4 -5 10 3 5 11 7 18 4 12 -4 47 62 47 89 0 14 20
37 32 37 4 0 8 -5 8 -11z m-1857 -5 c20 -4 37 -10 37 -14 0 -23 -155 -17 -164
6 -6 15 57 19 127 8z m1653 -13 c-4 -5 0 -11 6 -14 7 -2 9 -8 5 -13 -4 -5 -12
-2 -17 6 -13 20 -12 30 1 30 5 0 8 -4 5 -9z m-1225 -24 c-13 -13 -26 -3 -16
12 3 6 11 8 17 5 6 -4 6 -10 -1 -17z m45 -4 c-10 -10 -19 5 -10 18 6 11 8 11
12 0 2 -7 1 -15 -2 -18z m1307 -15 c-13 -12 -25 -19 -28 -16 -8 7 23 38 38 38
6 0 2 -10 -10 -22z m-1778 -12 c19 -8 35 -20 35 -25 0 -14 -17 -14 -26 0 -3 6
-16 8 -28 5 -26 -6 -51 7 -42 23 9 14 20 14 61 -3z m-1637 -22 c27 -19 28 -48
3 -79 l-18 -24 -22 30 c-17 23 -29 29 -58 29 l-36 0 23 25 c12 13 27 22 31 19
5 -3 17 0 26 5 24 14 25 14 51 -5z m1542 6 c0 -5 -7 -10 -15 -10 -8 0 -15 5
-15 10 0 6 7 10 15 10 8 0 15 -4 15 -10z m495 -10 c-3 -5 -16 -10 -29 -10 -12
0 -28 -6 -36 -12 -8 -7 -6 -3 4 10 18 21 74 33 61 12z m-835 -16 c0 -2 -7 -4
-15 -4 -8 0 -15 4 -15 10 0 5 7 7 15 4 8 -4 15 -8 15 -10z m2064 6 c28 -10 35
-30 12 -30 -8 0 -17 -15 -20 -34 -4 -19 -13 -37 -22 -40 -23 -9 -27 12 -15 73
1 2 8 -2 16 -9 8 -7 15 -8 15 -2 0 5 -7 15 -15 22 -32 26 -15 37 29 20z
m-1605 -34 c21 -14 11 -25 -18 -20 -16 3 -38 1 -51 -6 -17 -9 -25 -9 -38 3
-13 12 -22 13 -35 5 -22 -12 -30 -7 -22 13 4 11 24 14 79 13 40 0 78 -4 85 -8z
m-156 -73 c-4 -10 -9 -11 -16 -4 -5 5 -7 18 -3 28 6 14 9 15 16 4 4 -8 6 -21
3 -28z m-2628 17 c3 -5 -1 -10 -10 -10 -9 0 -13 5 -10 10 3 6 8 10 10 10 2 0
7 -4 10 -10z m1193 4 c12 -4 22 -12 22 -19 0 -8 11 -27 25 -43 26 -31 32 -52
16 -52 -5 0 -11 -9 -13 -20 -2 -12 -7 -20 -13 -20 -5 1 -12 -9 -15 -21 -5 -21
-6 -21 -22 -5 -10 9 -22 34 -28 55 -10 37 -32 57 -50 46 -19 -12 -18 13 0 30
11 10 20 24 20 31 0 7 6 15 13 17 17 7 19 7 45 1z m1590 -27 c27 -22 13 -36
-34 -32 -71 6 -105 16 -101 28 8 26 104 29 135 4z m1722 8 c0 -8 -2 -15 -4
-15 -2 0 -6 7 -10 15 -3 8 -1 15 4 15 6 0 10 -7 10 -15z m-4470 -15 c0 -5 -2
-10 -4 -10 -3 0 -8 5 -11 10 -3 6 -1 10 4 10 6 0 11 -4 11 -10z m3930 6 c0 -3
-4 -8 -10 -11 -5 -3 -10 -1 -10 4 0 6 5 11 10 11 6 0 10 -2 10 -4z m-1350 -26
c0 -5 -4 -10 -10 -10 -5 0 -10 5 -10 10 0 6 5 10 10 10 6 0 10 -4 10 -10z
m1765 -14 c18 -13 15 -15 -30 -28 -49 -14 -95 -13 -95 1 0 6 75 36 101 40 3 1
14 -5 24 -13z m-4362 -2 c13 -5 12 -11 -6 -39 -21 -33 -52 -53 -64 -41 -3 3 0
13 8 22 8 9 14 22 15 28 0 6 2 17 2 24 2 13 21 16 45 6z m4457 -8 c0 -7 -7
-19 -15 -26 -12 -10 -15 -9 -15 7 0 11 3 23 7 26 11 12 23 8 23 -7z m-1671
-32 c7 -6 -10 -74 -20 -74 -5 0 -14 11 -19 24 -8 22 -13 24 -39 16 -33 -9 -50
-8 -68 3 -22 14 -14 36 15 40 26 4 123 -3 131 -9z m-1451 -56 c18 -31 12 -45
-14 -30 -21 12 -70 -3 -78 -24 -6 -17 -42 -19 -52 -3 -8 13 33 48 57 49 9 0
24 9 34 20 22 25 32 23 53 -12z m1277 12 c-3 -5 -10 -10 -16 -10 -5 0 -9 5 -9
10 0 6 7 10 16 10 8 0 12 -4 9 -10z m1779 -34 c-9 -14 -21 -26 -28 -26 -8 0
-8 3 1 8 6 4 17 21 24 37 6 17 13 25 16 18 2 -6 -3 -23 -13 -37z m-4454 -36
c5 0 10 6 13 13 2 6 7 9 11 6 8 -7 -14 -59 -24 -59 -4 0 -20 -39 -35 -87 -14
-49 -31 -97 -36 -108 -6 -11 -11 -31 -13 -45 -5 -37 -18 -84 -26 -95 -4 -5
-11 -35 -15 -65 -4 -30 -11 -59 -15 -65 -4 -5 -13 -44 -20 -85 -7 -41 -17 -80
-22 -86 -4 -6 -5 -32 -2 -58 4 -28 3 -46 -3 -46 -20 0 -18 -446 2 -681 7 -80
6 -86 -12 -91 -23 -6 -63 8 -63 22 0 5 4 10 9 10 6 0 6 12 0 32 -5 17 -7 34
-4 36 2 3 0 13 -5 22 -7 12 -5 29 4 52 8 19 11 40 7 47 -5 7 -4 26 2 42 8 20
8 40 1 69 -8 28 -8 40 -1 40 7 0 7 4 -1 12 -15 15 -16 48 -2 48 6 0 10 7 10
16 0 8 -4 13 -8 10 -12 -7 -12 157 0 171 6 8 6 19 -1 32 -6 11 -8 22 -3 25 4
2 7 44 6 93 -2 69 2 92 14 106 14 16 14 19 2 27 -12 7 -12 15 -2 43 7 18 12
48 12 65 0 18 5 32 10 32 6 0 10 17 10 37 0 41 19 103 32 103 5 0 6 11 2 24
-5 21 -1 26 30 37 40 15 45 25 17 34 -27 8 -33 32 -16 65 8 16 15 35 15 43 0
7 14 40 30 72 17 32 30 67 30 77 0 10 10 28 23 41 l22 22 3 -27 c2 -16 7 -28
12 -28z m2797 36 c2 -1 -5 -21 -14 -45 -11 -28 -19 -38 -24 -29 -4 7 -12 9
-16 4 -4 -4 4 -18 18 -29 15 -12 34 -45 43 -74 16 -48 16 -54 1 -77 -17 -25
-37 -29 -64 -12 -11 7 -13 5 -8 -7 3 -9 2 -19 -3 -22 -6 -4 -10 -1 -10 6 0 8
-5 7 -17 -2 -15 -13 -16 -11 -8 16 4 17 7 36 6 43 -4 29 -3 49 4 82 9 47 -11
124 -31 116 -8 -3 -14 1 -14 9 0 8 9 15 19 15 11 0 23 5 27 11 5 9 81 6 91 -5z
m1507 -11 c3 -9 15 -15 28 -13 13 2 24 -1 26 -7 1 -5 -13 -10 -30 -11 -18 -1
-52 -4 -75 -8 -25 -4 -44 -3 -48 4 -3 5 -2 10 3 10 5 0 12 9 15 20 6 25 71 29
81 5z m-1734 -24 c0 -17 -4 -33 -10 -36 -6 -4 -10 8 -10 29 0 20 5 36 10 36 6
0 10 -13 10 -29z m284 -10 c3 -5 10 -40 16 -79 5 -39 15 -82 22 -96 10 -23 9
-28 -8 -41 -26 -20 -29 -19 -31 13 -3 41 -9 82 -22 132 -6 25 -11 53 -11 63 0
18 25 24 34 8z m-1477 -27 c2 -7 -6 -10 -22 -7 -14 3 -25 10 -25 15 0 13 43 6
47 -8z m141 -21 c-11 -14 -38 -18 -38 -6 0 3 8 15 17 25 12 14 18 15 24 6 4
-7 3 -18 -3 -25z m1402 -8 c16 -42 23 -122 12 -129 -7 -4 -13 8 -17 31 -3 21
-9 57 -14 81 -9 46 4 58 19 17z m-1453 -9 c-2 -6 -12 -13 -23 -14 -10 -2 -28
-12 -39 -22 -50 -43 -64 -24 -21 28 20 23 31 28 56 24 17 -2 29 -9 27 -16z
m1207 7 c4 -9 1 -20 -6 -25 -21 -13 -28 -9 -28 17 0 28 24 34 34 8z m1553 -33
c3 -13 14 -20 29 -20 13 0 24 -4 24 -10 0 -13 -17 -12 -65 5 -22 8 -51 15 -64
15 -32 0 -21 10 21 20 49 12 49 12 55 -10z m123 -11 c0 -14 -89 -119 -101
-119 -18 0 -8 21 25 53 18 17 39 42 45 55 12 23 31 30 31 11z m-2730 -60 c0
-5 -11 -9 -25 -9 -14 0 -25 -6 -25 -12 0 -10 -3 -9 -9 1 -7 11 -14 11 -41 -3
-44 -21 -50 -20 -50 8 0 20 7 25 48 33 47 9 102 0 102 -18z m1040 -15 c0 -14
4 -22 10 -19 6 3 10 1 10 -4 0 -6 -7 -11 -15 -11 -8 0 -15 -4 -15 -10 0 -5 -5
-9 -12 -7 -6 1 -15 -9 -19 -23 -6 -21 -7 -21 -8 -5 -1 11 -4 36 -7 55 -5 30
-2 37 18 46 30 13 38 9 38 -22z m1380 -24 c0 -5 -2 -10 -4 -10 -3 0 -8 5 -11
10 -3 6 -1 10 4 10 6 0 11 -4 11 -10z m59 -5 c16 -8 31 -11 35 -8 3 4 6 1 6
-7 0 -16 -59 -5 -80 15 -19 20 1 20 39 0z m-2364 -15 c18 -7 18 -8 -8 -15 -15
-4 -31 -5 -34 -1 -3 3 -13 -3 -22 -13 -9 -10 -25 -20 -36 -22 -12 -3 -21 -14
-23 -27 -4 -27 -42 -31 -42 -4 0 59 100 109 165 82z m1117 -31 c3 -9 21 -15
51 -18 4 -1 7 -15 7 -31 0 -17 7 -44 15 -59 8 -16 17 -48 21 -72 4 -24 11 -50
16 -56 13 -16 3 -43 -16 -43 -8 0 -16 -3 -19 -7 -2 -5 -2 -2 0 5 2 8 0 19 -4
25 -4 6 -7 21 -8 32 -4 68 -6 75 -20 75 -8 0 -14 8 -13 18 3 39 -2 51 -18 45
-18 -7 -18 4 10 -231 8 -67 18 -127 21 -131 3 -5 0 -22 -6 -38 l-11 -28 -13
31 c-10 24 -19 32 -40 32 -17 0 -24 -5 -21 -13 2 -7 0 -17 -6 -23 -8 -8 -3
-14 17 -22 15 -6 25 -13 22 -16 -3 -3 1 -32 9 -64 7 -33 12 -65 10 -72 -1 -7
-1 -10 1 -5 9 15 23 6 23 -16 0 -13 9 -32 19 -41 11 -10 25 -31 31 -47 7 -16
17 -29 22 -29 5 0 8 -6 6 -12 -3 -21 12 -58 25 -58 8 0 8 -3 -1 -12 -15 -15
-16 -48 -2 -48 6 0 10 -8 10 -17 0 -13 -3 -14 -12 -5 -19 19 -30 14 -26 -10 2
-16 -5 -28 -24 -40 -16 -10 -28 -23 -28 -29 0 -8 4 -8 13 -2 51 41 108 13 110
-55 1 -23 6 -42 11 -42 4 0 5 -11 2 -25 -5 -18 -2 -25 9 -25 8 0 15 -5 15 -12
0 -6 3 -8 6 -5 13 13 42 -14 65 -60 17 -37 24 -44 27 -28 2 10 0 21 -6 23 -5
1 -8 12 -5 22 4 13 0 20 -10 20 -19 0 -32 31 -16 40 6 5 3 9 -10 13 -12 3 -24
13 -28 24 -3 10 -9 20 -12 23 -3 3 -12 15 -19 28 -16 29 2 29 22 0 9 -12 16
-18 16 -13 0 6 16 -7 35 -27 18 -21 41 -38 49 -38 23 0 19 14 -6 25 -13 6 -22
16 -21 23 2 7 -4 12 -13 12 -10 0 -14 6 -10 15 3 8 1 15 -5 15 -6 0 -8 8 -5
18 4 12 -3 29 -19 46 -14 15 -25 31 -25 37 0 5 -5 9 -11 9 -6 0 -9 -7 -5 -15
6 -16 -2 -19 -21 -7 -10 7 -10 14 0 35 9 22 17 26 36 22 18 -5 22 -3 18 9 -7
18 9 31 18 16 5 -8 13 -6 26 6 18 16 18 18 3 36 -15 16 -15 18 -2 18 9 0 23
-11 32 -25 9 -14 23 -25 31 -25 8 0 15 -4 15 -8 0 -14 106 -35 143 -29 43 7
54 -1 27 -20 -22 -15 -150 -26 -150 -13 0 4 -7 10 -15 14 -25 9 -17 -14 16
-45 32 -30 53 -32 28 -3 -11 14 -10 16 11 12 16 -2 25 -10 25 -20 0 -10 15
-26 34 -36 41 -22 40 -38 -1 -34 -31 2 -31 2 -14 -17 25 -28 11 -47 -20 -27
-33 22 -49 20 -62 -9 -6 -14 -16 -25 -22 -25 -17 0 -11 -26 10 -45 11 -10 20
-24 20 -32 0 -8 5 -11 10 -8 6 3 10 -2 10 -12 0 -25 24 -91 38 -105 6 -6 19
-12 29 -13 10 -1 31 -7 46 -14 16 -6 36 -11 46 -11 31 0 41 -20 25 -46 -9 -12
-14 -33 -12 -46 2 -18 10 -24 38 -26 63 -5 66 -10 30 -47 -19 -19 -39 -35 -44
-35 -12 0 -58 -63 -69 -92 -26 -73 -123 -153 -195 -162 -45 -5 -98 -35 -113
-64 -7 -15 -21 -36 -30 -47 -9 -11 -19 -29 -21 -40 -3 -17 -10 -19 -43 -17
-39 3 -65 23 -65 49 0 7 9 13 20 13 11 0 20 -4 20 -10 0 -5 5 -10 10 -10 6 0
10 6 9 13 -5 44 6 63 79 132 94 90 65 90 -33 0 -68 -62 -70 -64 -73 -39 l-4
26 -24 -23 c-13 -12 -24 -31 -24 -41 0 -20 -6 -28 -62 -87 -21 -21 -38 -43
-38 -47 0 -5 -9 -15 -21 -22 -18 -11 -24 -11 -40 4 -11 9 -19 22 -18 28 1 6 1
20 0 31 -2 18 -3 18 -15 -4 -12 -21 -12 -27 0 -39 19 -19 18 -22 -9 -22 -15 0
-29 11 -40 30 -10 16 -18 32 -17 35 0 3 -3 6 -7 8 -4 1 -12 -10 -17 -25 -8
-23 -6 -31 9 -42 11 -8 25 -12 32 -9 7 3 13 1 13 -5 0 -5 9 -12 20 -15 35 -9
35 -36 0 -73 -32 -32 -37 -60 -7 -36 20 17 29 3 13 -20 -10 -13 -11 -30 -6
-55 5 -20 9 -79 10 -132 2 -121 2 -123 -10 -116 -5 3 -10 -1 -10 -10 0 -8 6
-18 14 -21 9 -3 14 -23 15 -56 0 -29 5 -56 9 -60 6 -6 9 75 9 189 -1 254 1
277 31 281 27 4 27 7 2 34 -11 12 -20 30 -20 40 0 19 25 25 35 8 4 -6 10 -8
15 -5 24 15 27 -90 3 -140 -13 -26 -14 -38 -5 -47 7 -7 8 -17 2 -29 -7 -11 -7
-20 0 -24 5 -3 10 -1 10 4 0 6 8 11 18 11 14 0 19 9 20 37 3 45 10 56 28 49 8
-3 14 -1 14 4 0 6 7 10 16 10 11 0 14 -5 10 -16 -3 -9 -6 -20 -6 -25 0 -4 -8
-5 -17 -2 -12 5 -15 2 -10 -10 3 -9 2 -19 -3 -22 -6 -4 -7 -17 -4 -31 4 -16 1
-31 -9 -42 -14 -16 -19 -37 -32 -144 -6 -40 -5 -42 9 -24 15 19 16 18 31 -17
24 -57 20 -77 -14 -77 -16 0 -37 7 -46 16 -9 9 -17 15 -18 13 -1 -2 -7 -14
-14 -25 -22 -40 -27 -137 -9 -172 9 -17 16 -50 16 -74 0 -24 9 -63 20 -87 16
-35 23 -41 34 -32 7 6 20 9 28 6 8 -3 24 6 36 20 12 14 29 25 37 25 18 0 46
-57 38 -77 -9 -22 -23 -14 -23 12 0 35 -25 32 -40 -5 -7 -16 -21 -32 -31 -35
-10 -4 -19 -11 -19 -16 0 -5 -7 -9 -15 -9 -8 0 -15 5 -15 10 0 6 -7 10 -16 10
-12 0 -15 7 -12 24 4 18 -1 27 -18 35 -13 6 -26 22 -30 36 -5 20 -12 25 -38
25 -20 0 -35 -7 -43 -19 -11 -18 -86 -38 -127 -33 -18 2 -18 1 -3 -16 19 -21
22 -42 7 -42 -21 0 -68 43 -63 56 7 19 -11 18 -27 -1 -7 -8 -16 -15 -21 -15
-16 0 -9 30 11 50 25 25 120 29 140 5 11 -14 14 -13 27 4 7 11 22 18 32 16 14
-2 21 4 25 21 7 26 36 34 36 9 0 -8 4 -15 10 -15 5 0 9 12 9 28 -2 49 -10 82
-21 82 -6 0 -8 -9 -5 -20 6 -25 -14 -42 -46 -36 -20 3 -24 1 -21 -20 1 -13 -2
-24 -7 -24 -16 0 -9 44 11 70 11 14 20 30 20 37 0 6 9 18 19 25 17 12 19 19 9
54 -5 21 -12 55 -15 74 -3 19 -10 41 -16 49 -7 7 -15 39 -18 70 -4 31 -10 82
-14 114 -5 37 -4 57 2 57 6 0 10 22 10 51 -1 37 4 55 16 64 21 15 22 26 2 19
-21 -9 -21 73 1 97 10 11 13 25 9 38 -6 21 -25 29 -25 12 0 -15 -63 -10 -78 6
-12 11 -11 17 2 38 9 13 16 36 16 50 0 14 4 25 9 25 15 0 19 62 4 90 -14 30
-120 102 -142 98 -16 -3 -17 -23 -1 -23 6 0 9 -4 8 -10 -3 -12 -43 -12 -75 -1
-20 6 -23 4 -23 -22 0 -20 8 -35 26 -48 15 -10 35 -28 45 -38 18 -19 19 -19
33 -1 11 15 11 22 0 44 -16 31 -2 41 25 17 10 -9 23 -16 30 -16 13 0 12 -14
-4 -52 -5 -14 -2 -18 15 -18 11 0 18 5 15 10 -3 6 -4 14 0 20 8 13 35 1 35
-17 0 -8 -4 -12 -8 -9 -4 2 -8 -8 -7 -22 0 -28 -10 -31 -62 -19 -13 4 -32 -2
-48 -14 -14 -11 -25 -16 -25 -10 0 6 -7 11 -15 11 -8 0 -15 9 -15 20 0 21 15
27 25 10 12 -20 25 1 14 21 -8 15 -17 19 -34 15 -18 -5 -28 1 -46 25 -13 17
-30 37 -36 44 -7 8 -13 18 -13 24 0 6 -5 11 -10 11 -6 0 -20 8 -31 19 -17 15
-25 17 -48 8 -16 -6 -35 -8 -43 -5 -20 8 -64 99 -84 173 -14 49 -25 68 -68
108 l-51 48 37 -6 c30 -6 44 -2 70 16 18 13 38 30 44 38 16 20 32 6 26 -24 -6
-33 7 -32 53 5 40 32 59 37 70 19 10 -15 55 29 55 53 0 10 -5 18 -11 18 -8 0
-7 6 2 18 13 15 12 16 -3 4 -26 -20 -38 -6 -38 44 0 28 4 43 10 39 11 -7 14
18 3 29 -15 15 -11 42 10 71 25 33 25 85 1 85 -22 0 -16 14 12 27 24 11 26 10
21 -7 -5 -21 7 -27 19 -9 3 6 -1 18 -9 26 -14 14 -23 13 -87 -6 -71 -22 -95
-22 -72 1 8 8 7 14 -5 23 -20 15 -7 38 18 32 27 -7 88 16 104 41 8 11 28 23
45 27 16 4 32 11 35 15 3 5 19 7 34 4 31 -6 53 12 27 22 -24 9 -19 23 5 17 14
-4 19 -12 16 -24 -3 -11 -1 -19 5 -19 5 0 7 -4 4 -9 -3 -5 0 -11 8 -14 9 -4
12 -14 9 -28 -5 -18 -3 -21 11 -16 11 4 16 3 14 -4 -2 -6 -7 -10 -11 -9 -9 1
-37 -25 -37 -35 0 -3 10 0 23 7 12 6 28 13 35 14 8 1 22 10 32 19 18 17 21 15
60 -25 22 -23 40 -47 41 -53 0 -7 0 -54 -1 -106 -1 -72 1 -91 11 -86 8 5 10 4
5 -3 -4 -6 -13 -9 -20 -6 -10 4 -13 -6 -12 -40 1 -24 7 -50 13 -58 20 -24 54
-99 49 -106 -3 -5 -1 -14 5 -22 6 -10 9 -11 9 -2 0 17 27 15 33 -2 5 -12 -1
-14 -25 -11 -16 2 -33 6 -36 9 -3 4 -16 -1 -29 -9 -21 -14 -23 -14 -23 0 0 8
-7 15 -17 15 -15 0 -15 -1 1 -19 13 -14 29 -18 62 -16 24 1 47 -2 50 -7 3 -5
14 -6 24 -3 12 4 22 -1 29 -12 6 -10 11 -12 11 -5 0 14 30 17 30 2 0 -5 -3
-10 -8 -10 -4 0 -13 -13 -20 -29 -10 -23 -10 -33 2 -55 10 -20 12 -37 5 -59
-5 -18 -9 -48 -9 -68 0 -26 -8 -43 -30 -64 -17 -16 -30 -39 -30 -52 0 -22 19
-114 26 -121 7 -9 74 32 79 48 7 21 -14 72 -26 64 -13 -8 -11 10 3 24 10 10
10 17 1 31 -17 27 -9 89 16 115 11 12 21 29 21 38 0 8 9 27 21 41 16 21 18 31
9 47 -14 26 -27 25 -36 -2 -13 -43 -25 -51 -42 -27 -14 20 -14 23 3 35 10 8
22 14 27 14 4 0 8 7 8 16 0 9 11 25 25 36 14 11 25 26 25 34 0 8 4 13 9 10 5
-4 7 2 4 13 -3 10 0 22 6 25 6 4 11 15 11 24 0 11 -12 3 -36 -25 -20 -24 -40
-43 -45 -43 -22 0 -1 73 26 92 6 4 9 37 8 73 -2 46 1 65 10 65 8 0 7 3 -3 9
-10 7 -18 4 -28 -10 -18 -26 -32 -24 -32 4 0 12 -7 40 -14 62 -9 26 -11 44 -5
50 14 14 29 -13 29 -54 0 -29 2 -32 15 -21 12 10 15 10 15 -1 1 -9 4 -8 11 4
6 10 8 35 4 56 -5 33 -9 37 -28 34 -18 -4 -23 0 -23 16 0 12 3 21 7 21 11 0
22 58 14 70 -5 7 -12 5 -21 -7 -13 -17 -13 -17 -14 1 0 11 7 28 17 38 9 10 12
18 6 18 -25 0 -44 -41 -52 -110 -8 -78 -8 -96 3 -121 4 -9 6 -34 4 -54 -2 -28
-9 -40 -25 -46 -41 -15 -55 44 -35 152 5 26 7 55 4 65 -2 11 -5 37 -6 60 -3
46 -13 67 -27 58 -5 -3 -6 -11 -2 -17 4 -7 8 -35 8 -63 1 -45 -1 -50 -18 -46
-12 3 -17 11 -14 23 4 13 -10 36 -44 71 -27 28 -49 55 -49 60 0 4 -7 8 -15 8
-8 0 -15 9 -15 21 0 11 4 18 9 14 6 -3 15 4 21 15 9 16 8 20 -5 20 -8 0 -15 6
-15 13 0 7 -7 4 -15 -7 -13 -17 -15 -17 -21 -3 -10 26 -38 22 -31 -4 4 -15 3
-19 -4 -12 -6 6 -11 24 -11 41 -1 22 -5 29 -15 25 -8 -3 -12 -12 -9 -19 3 -7
1 -16 -4 -19 -5 -3 -12 4 -15 15 -4 12 -14 20 -23 18 -9 -1 -23 1 -29 5 -8 5
-20 0 -30 -13 -10 -11 -23 -20 -30 -20 -7 0 -13 -5 -13 -11 0 -5 4 -8 9 -5 10
6 71 -15 71 -25 0 -4 -8 -9 -17 -12 -10 -2 -27 -8 -37 -13 -14 -5 -17 -4 -12
4 13 22 -16 12 -38 -12 -17 -19 -26 -22 -45 -15 -19 8 -21 12 -11 24 7 9 21
13 31 10 11 -4 19 -2 19 4 0 12 -48 27 -57 17 -3 -3 -12 -1 -19 4 -8 8 -17 6
-28 -5 -19 -19 -62 -11 -45 8 5 7 16 21 24 32 9 12 14 14 13 5 -2 -11 6 -13
37 -11 22 2 47 7 55 12 13 8 13 9 0 7 -8 -1 -48 2 -88 6 l-74 8 -29 -33 c-24
-27 -27 -29 -17 -9 7 14 11 31 9 39 -1 8 8 23 21 33 19 15 20 18 6 18 -21 0
-24 16 -5 23 18 6 37 -3 37 -18 0 -19 24 -25 93 -25 41 0 66 5 78 16 17 15 20
14 42 -10 l24 -26 27 21 c15 12 31 32 36 45 8 20 13 22 41 14 17 -5 35 -7 40
-5 4 3 9 -1 12 -7 7 -20 36 22 37 53 0 33 20 50 60 53 36 3 39 -15 9 -59 l-21
-30 7 29 c6 26 4 28 -10 16 -14 -11 -14 -15 0 -36 20 -31 20 -55 -1 -47 -12 4
-15 2 -12 -8 2 -8 16 -15 31 -17 17 -2 27 -10 29 -24 2 -12 9 -23 16 -26 17
-5 15 38 -3 62 -15 20 -13 48 8 99 12 28 32 36 40 15 3 -10 9 -10 26 0 12 7
31 10 41 7 15 -5 21 0 26 22 4 15 10 33 15 38 4 6 1 18 -6 28 -15 21 -28 7
-18 -18 4 -13 2 -16 -8 -13 -8 2 -16 20 -19 39 -4 27 -7 30 -13 16 -4 -10 -7
-36 -7 -58 0 -34 -3 -39 -24 -39 -13 0 -26 6 -29 14 -8 20 33 105 52 108 13 3
12 7 -6 23 -13 11 -23 28 -23 38 0 28 -25 14 -26 -14 -2 -46 -4 -51 -17 -46
-8 3 -14 -1 -14 -9 0 -7 4 -11 9 -8 4 3 8 -2 8 -10 0 -10 -6 -13 -15 -10 -8 4
-15 11 -15 16 0 6 -7 4 -16 -3 -16 -13 -16 -9 -9 46 4 33 7 96 6 139 0 44 4
98 10 120 6 23 11 78 10 124 0 68 2 82 15 82 9 0 14 -6 11 -12 -2 -7 2 -28 9
-47 9 -21 12 -49 8 -75 -5 -33 -4 -39 6 -29 12 11 14 53 7 118 -1 14 4 20 18
20 11 0 20 -5 20 -12 0 -6 3 -15 8 -19 4 -4 7 4 7 19 0 14 -5 29 -11 33 -7 4
-8 9 0 17 7 7 14 7 23 -1 9 -7 18 -6 32 4 23 17 43 18 48 3z m1335 -26 c2 -6
-10 -26 -27 -45 -23 -23 -30 -27 -25 -13 3 11 9 33 12 48 6 28 32 35 40 10z
m-2363 -9 c4 -9 4 -19 2 -21 -8 -8 -26 8 -26 23 0 19 16 18 24 -2z m-54 -14
c-11 -11 -25 -20 -32 -20 -22 0 -78 -51 -78 -71 0 -24 -23 -20 -28 4 -4 19 43
64 76 73 12 3 22 10 22 14 0 7 10 11 53 19 4 0 -2 -8 -13 -19z m844 -60 c-10
-27 -11 -52 -5 -85 9 -50 2 -59 -16 -17 -21 49 -24 71 -14 89 5 10 12 26 15
36 3 9 12 17 20 17 12 0 12 -6 0 -40z m1321 25 c0 -5 -17 -10 -37 -11 -36 -3
-47 4 -31 20 10 10 68 3 68 -9z m-1975 -15 c0 -5 -7 -10 -16 -10 -8 0 -12 5
-9 10 3 6 10 10 16 10 5 0 9 -4 9 -10z m-84 -29 c-4 -6 -14 -11 -22 -11 -8 0
-14 -3 -14 -7 0 -5 -22 -9 -49 -10 -39 -1 -49 2 -44 13 5 14 19 19 77 28 16 3
31 8 34 11 9 9 25 -12 18 -24z m2244 20 c0 -15 -91 -102 -100 -96 -5 3 14 28
42 55 54 53 58 55 58 41z m-2220 -31 c0 -5 -5 -10 -11 -10 -5 0 -7 5 -4 10 3
6 8 10 11 10 2 0 4 -4 4 -10z m140 -15 c0 -8 -4 -15 -9 -15 -13 0 -22 16 -14
24 11 11 23 6 23 -9z m-80 1 c0 -2 -7 -7 -16 -10 -8 -3 -12 -2 -9 4 6 10 25
14 25 6z m-60 -16 c0 -5 -2 -10 -4 -10 -3 0 -8 5 -11 10 -3 6 -1 10 4 10 6 0
11 -4 11 -10z m-179 -33 c-8 -8 -11 -7 -11 4 0 20 13 34 18 19 3 -7 -1 -17 -7
-23z m1986 11 c11 -13 27 -39 36 -59 13 -27 25 -38 56 -48 57 -17 58 -28 3
-29 -64 -3 -112 26 -112 67 0 16 -7 34 -15 41 -19 15 -20 50 -2 50 8 0 23 -10
34 -22z m-1637 -8 c0 -5 -5 -10 -11 -10 -5 0 -7 5 -4 10 3 6 8 10 11 10 2 0 4
-4 4 -10z m1836 -2 c4 -6 1 -8 -7 -6 -8 3 -23 1 -33 -5 -29 -14 -106 -16 -106
-2 0 6 3 14 6 18 11 10 133 6 140 -5z m-2183 -38 c3 -11 1 -20 -5 -20 -5 0 -6
-4 -3 -10 3 -5 2 -10 -4 -10 -16 0 -23 18 -16 40 8 26 21 26 28 0z m1945 -20
c-2 -5 -9 -6 -16 -1 -7 4 -10 15 -6 25 6 17 8 17 16 2 5 -9 8 -21 6 -26z
m-1678 21 c0 -5 -16 -23 -36 -41 -20 -17 -34 -34 -31 -37 8 -8 69 32 87 56 8
12 19 21 24 21 6 0 5 -5 -2 -12 -7 -7 -12 -19 -12 -27 1 -13 4 -12 15 3 8 11
18 16 22 13 8 -9 -27 -36 -46 -37 -7 0 -21 -8 -30 -18 -17 -20 -82 -37 -94
-25 -4 3 0 14 9 24 15 16 12 18 -41 24 -44 6 -59 4 -74 -9 -27 -24 -32 -20
-17 16 17 39 34 46 115 47 35 0 66 3 69 6 9 9 42 6 42 -4z m1586 -28 c7 -10
14 -26 14 -35 0 -29 49 -78 79 -78 28 0 47 -11 71 -44 14 -17 11 -18 -55 -11
-39 4 -80 13 -92 21 -17 11 -29 11 -50 3 -25 -9 -26 -12 -10 -20 9 -6 21 -8
26 -5 5 3 14 -1 21 -9 7 -8 24 -15 39 -15 19 0 22 -3 12 -9 -35 -22 -131 19
-131 56 0 8 4 12 8 9 10 -6 62 48 62 64 0 6 -10 24 -21 39 -21 28 -19 51 3 51
6 0 17 -8 24 -17z m391 -12 c-3 -16 -20 -49 -37 -74 -16 -25 -30 -50 -30 -55
0 -6 -9 -14 -20 -17 -11 -3 -20 -12 -20 -18 0 -7 -16 -30 -35 -52 -19 -22 -35
-35 -35 -29 0 6 9 21 20 34 11 13 20 27 20 32 0 5 17 25 37 46 38 38 40 41 45
77 2 11 9 24 16 28 7 5 17 20 22 33 13 33 24 30 17 -5z m-321 -7 c-3 -7 -1
-16 4 -19 6 -4 10 -12 10 -18 -1 -16 -40 32 -40 49 0 8 6 11 16 7 8 -3 13 -12
10 -19z m-1532 -60 c-3 -17 -21 -47 -40 -68 -40 -43 -41 -46 -14 -46 12 0 24
10 30 24 11 29 25 39 61 41 33 3 30 -12 -8 -39 -26 -19 -26 -19 -19 0 4 11 -3
7 -18 -11 -13 -16 -20 -33 -15 -36 6 -3 2 -12 -7 -20 -14 -11 -18 -11 -22 -1
-3 10 -9 10 -28 -3 -14 -9 -30 -12 -37 -8 -12 8 -17 9 -39 12 -10 1 -10 3 1
10 7 5 21 7 30 4 10 -2 24 3 32 13 13 16 12 17 -12 11 -14 -4 -49 -3 -77 2
-29 4 -55 4 -58 0 -19 -31 -37 10 -21 45 11 24 16 26 53 20 33 -5 53 0 98 21
32 15 60 35 63 44 3 9 11 22 16 29 17 22 38 -8 31 -44z m-252 4 c-7 -7 -12 -8
-12 -2 0 6 3 14 7 17 3 4 9 5 12 2 2 -3 -1 -11 -7 -17z m1848 3 c0 -5 -9 -7
-20 -4 -11 3 -20 7 -20 9 0 2 9 4 20 4 11 0 20 -4 20 -9z m-266 -37 c9 -8 16
-23 16 -33 0 -9 15 -33 34 -53 33 -34 69 -52 130 -62 37 -7 78 -34 70 -48 -9
-14 -170 0 -205 18 -30 15 -50 59 -73 167 -7 30 5 35 28 11z m-1184 -14 c0 -5
-11 -26 -25 -46 -41 -61 -27 -112 24 -84 30 15 28 -7 -4 -45 -24 -29 -25 -29
-40 -11 -8 11 -13 28 -9 38 3 10 2 18 -2 18 -6 0 -59 -42 -95 -75 -11 -11 -40
-15 -102 -15 -51 0 -87 -4 -87 -10 0 -5 -7 -10 -15 -10 -8 0 -15 7 -15 15 0 8
4 15 8 15 4 0 16 14 25 30 20 33 52 39 114 21 27 -8 39 -5 85 24 68 44 80 54
73 66 -4 5 6 25 21 44 26 34 44 45 44 25z m830 -58 c0 -13 -12 -22 -22 -16
-10 6 -1 24 13 24 5 0 9 -4 9 -8z m250 -23 c4 -8 15 -28 24 -46 9 -17 16 -42
16 -56 0 -45 29 -68 90 -72 57 -3 138 -19 147 -28 3 -3 2 -11 -2 -18 -6 -8
-36 -10 -109 -6 -97 5 -102 7 -128 36 -19 21 -28 42 -28 65 0 19 -9 55 -20 81
-11 26 -20 51 -20 57 0 14 22 5 30 -13z m350 1 c12 -8 9 -10 -12 -10 -16 0
-28 5 -28 10 0 13 20 13 40 0z m-270 -45 c11 -13 10 -14 -4 -9 -9 3 -16 10
-16 15 0 13 6 11 20 -6z m-512 -51 c1 -20 -2 -25 -14 -20 -8 3 -12 2 -9 -4 3
-6 1 -10 -4 -10 -12 0 -15 29 -5 54 9 22 29 9 32 -20z m-578 16 c0 -5 -17 -29
-37 -51 -21 -23 -37 -44 -35 -45 1 -2 2 -13 2 -25 0 -32 -52 -47 -150 -44 -65
1 -86 5 -88 17 -7 34 73 46 153 23 22 -7 54 18 82 63 10 15 23 31 30 35 7 4
13 15 13 22 0 8 7 15 15 15 8 0 15 -4 15 -10z m253 -7 c-3 -10 -12 -23 -21
-30 -8 -7 -12 -19 -9 -28 4 -8 3 -15 -1 -15 -7 0 -9 -8 -13 -65 -2 -27 -13
-33 -25 -13 -4 6 -2 14 4 16 6 2 8 10 5 18 -3 8 -2 22 2 32 4 9 8 27 9 39 2
22 32 63 47 63 5 0 6 -8 2 -17z m947 -37 c60 -9 110 -25 110 -37 0 -13 -34
-11 -47 2 -6 6 -44 13 -84 15 -76 4 -107 19 -96 48 6 14 10 14 39 -3 18 -10
53 -22 78 -25z m310 34 c0 -5 -5 -10 -11 -10 -5 0 -7 5 -4 10 3 6 8 10 11 10
2 0 4 -4 4 -10z m-1643 -54 c-11 -11 -32 -16 -69 -15 -29 1 -42 4 -28 6 14 2
39 15 55 28 25 20 32 22 44 10 12 -12 12 -16 -2 -29z m1577 29 c-4 -8 -10 -12
-15 -9 -11 6 -2 24 11 24 5 0 7 -7 4 -15z m-1416 -26 c1 -28 -2 -30 -24 -25
-17 5 -24 2 -24 -9 0 -14 11 -19 38 -16 6 1 12 -3 12 -9 0 -5 8 -10 18 -10 15
0 15 2 2 10 -13 9 -12 12 4 25 27 20 33 12 31 -37 -2 -31 -7 -42 -16 -39 -8 1
-23 4 -34 5 -28 4 -64 28 -71 48 -5 16 42 88 57 88 3 0 6 -14 7 -31z m952 1
c0 -24 87 -110 111 -110 9 0 22 -7 29 -15 16 -19 3 -19 -33 0 -17 8 -40 12
-57 8 -26 -5 -30 -2 -30 15 0 26 -30 92 -42 92 -5 0 -6 5 -3 10 8 13 25 13 25
0z m-375 -19 c7 -12 -12 -24 -25 -16 -11 7 -4 25 10 25 5 0 11 -4 15 -9z
m-915 -21 c0 -5 -7 -10 -15 -10 -8 0 -15 5 -15 10 0 6 7 10 15 10 8 0 15 -4
15 -10z m1950 0 c0 -5 -2 -10 -4 -10 -3 0 -8 5 -11 10 -3 6 -1 10 4 10 6 0 11
-4 11 -10z m-2335 -10 c3 -5 1 -10 -4 -10 -6 0 -11 5 -11 10 0 6 2 10 4 10 3
0 8 -4 11 -10z m1362 -26 c3 -8 0 -21 -7 -27 -10 -9 -11 -9 -6 0 3 6 2 14 -4
18 -13 8 -13 25 0 25 6 0 13 -7 17 -16z m900 -20 c-3 -3 -12 -4 -19 -1 -8 3
-5 6 6 6 11 1 17 -2 13 -5z m-1622 -14 c-3 -5 -1 -10 4 -10 6 0 11 -5 11 -10
0 -6 -12 -10 -27 -9 -16 0 -40 -2 -55 -4 -16 -2 -28 -1 -28 3 0 11 47 33 57
27 5 -3 15 -2 23 4 19 11 23 11 15 -1z m1770 0 c6 -9 50 -41 104 -75 40 -25
91 -68 87 -72 -7 -8 -95 34 -133 63 -17 13 -35 24 -39 24 -13 0 -54 43 -54 57
0 15 26 18 35 3z m-1067 -31 c-28 -7 -30 -6 -22 14 5 13 9 14 25 4 19 -12 19
-12 -3 -18z m-598 3 c0 -10 -7 -19 -15 -19 -18 0 -19 9 -3 25 16 16 18 15 18
-6z m896 -52 c8 0 14 -4 14 -9 0 -5 12 -12 28 -14 15 -3 9 -5 -14 -3 -35 1
-41 -2 -39 -16 6 -27 -24 -10 -31 18 -4 13 -1 30 5 38 7 8 11 18 10 22 -1 5 0
16 1 24 2 8 5 -2 7 -22 3 -25 9 -38 19 -38z m50 46 c11 -8 34 -13 50 -11 29 3
69 -16 57 -28 -22 -23 -143 9 -143 37 0 20 10 20 36 2z m-1886 -1 c0 -12 -66
-64 -82 -65 -9 0 -19 -4 -22 -9 -6 -9 -51 -20 -103 -25 -46 -4 -32 9 24 23 99
25 123 35 144 57 21 22 39 31 39 19z m1590 -30 c-7 -9 -15 -13 -17 -11 -7 7 7
26 19 26 6 0 6 -6 -2 -15z m47 -7 c-3 -8 -6 -5 -6 6 -1 11 2 17 5 13 3 -3 4
-12 1 -19z m441 12 c6 0 12 -4 12 -10 0 -12 -67 -13 -74 -1 -9 13 7 23 29 17
11 -3 26 -6 33 -6z m479 -36 c16 -4 21 -9 13 -14 -14 -9 -70 10 -70 23 0 5 7
6 16 3 9 -3 27 -9 41 -12z m48 -24 c3 -5 1 -10 -4 -10 -6 0 -11 5 -11 10 0 6
2 10 4 10 3 0 8 -4 11 -10z m-1027 -30 c-1 -16 -6 -30 -10 -30 -4 0 -8 14 -8
30 0 17 5 30 10 30 6 0 9 -13 8 -30z m44 -6 c-7 -12 -11 -13 -17 -4 -4 7 -2
16 6 21 18 11 23 4 11 -17z m308 16 c0 -5 -8 -10 -18 -10 -10 0 -27 -7 -38
-15 -18 -14 -17 -14 13 -15 17 0 35 -4 38 -10 10 -16 -45 -12 -87 7 -21 9 -38
24 -38 32 1 13 3 12 15 -3 13 -18 16 -18 32 -4 30 26 83 38 83 18z m73 3 c-7
-2 -19 -2 -25 0 -7 3 -2 5 12 5 14 0 19 -2 13 -5z m87 -2 c0 -28 -59 -40 -68
-13 -2 7 2 10 11 6 8 -3 18 -1 22 5 8 13 35 15 35 2z m565 -21 c16 -18 16 -20
2 -20 -9 0 -21 9 -27 20 -6 11 -7 20 -2 20 5 0 17 -9 27 -20z m1430 -32 c-9
-194 -19 -296 -31 -315 -9 -14 -10 -23 -3 -25 7 -2 2 -34 -12 -88 -12 -46 -22
-91 -24 -99 -3 -23 -25 -25 -25 -2 0 28 20 112 33 136 8 16 20 167 18 239 0
11 4 27 10 37 5 10 5 20 0 23 -4 3 -5 24 -1 47 4 22 5 50 2 61 -5 19 15 41 29
33 3 -3 5 -24 4 -47z m-1254 25 c13 -16 12 -17 -3 -4 -10 7 -18 15 -18 17 0 8
8 3 21 -13z m-2976 -3 c-3 -5 -19 -10 -35 -10 -16 0 -32 -4 -35 -10 -8 -13
-45 -13 -45 0 0 6 6 10 13 9 6 -1 19 0 27 4 50 19 84 22 75 7z m2150 -20 c3
-5 -1 -10 -9 -10 -8 0 -18 5 -21 10 -3 6 1 10 9 10 8 0 18 -4 21 -10z m-2285
-17 c-2 -20 -83 -95 -150 -138 -41 -26 -77 -51 -80 -55 -3 -4 -28 -21 -56 -38
-34 -20 -56 -27 -65 -21 -21 13 -28 11 -26 -10 0 -11 4 -19 7 -18 3 1 7 -2 9
-8 6 -15 -80 -57 -103 -51 -12 3 -40 -2 -63 -12 -36 -14 -43 -22 -43 -44 0
-16 -4 -28 -10 -28 -5 0 -10 5 -10 10 0 21 -31 8 -112 -47 -46 -31 -85 -60
-88 -64 -3 -3 -16 -10 -30 -14 -41 -12 -130 -82 -130 -102 0 -13 42 2 62 22
26 26 94 75 104 75 4 0 26 14 51 30 24 17 48 30 53 30 4 0 10 5 12 12 2 6 10
9 18 6 15 -5 -154 -158 -175 -158 -8 0 -26 -10 -42 -23 -15 -13 -50 -36 -78
-52 -27 -15 -54 -34 -58 -42 -4 -7 -14 -13 -22 -13 -7 0 -20 -6 -27 -14 -21
-21 -74 -29 -99 -16 -14 8 -24 9 -28 2 -3 -5 -25 -15 -47 -21 -23 -6 -47 -18
-54 -26 -13 -16 -50 -21 -50 -7 0 10 76 66 103 75 9 4 17 11 17 16 0 9 102 81
114 81 2 0 36 18 75 40 39 22 77 40 86 40 8 0 23 7 33 16 53 47 88 74 100 74
6 0 12 4 12 8 0 5 15 16 33 25 49 26 143 91 190 132 9 8 26 15 38 15 12 0 38
12 58 28 20 15 47 33 60 40 13 8 39 22 58 33 18 10 42 19 52 19 10 0 41 15 67
33 27 18 63 39 79 47 27 13 59 41 67 58 4 10 72 61 81 62 4 0 7 -3 7 -7z
m2282 -28 c0 -5 -5 -11 -11 -13 -6 -2 -11 4 -11 13 0 9 5 15 11 13 6 -2 11 -8
11 -13z m841 8 c-7 -2 -19 -2 -25 0 -7 3 -2 5 12 5 14 0 19 -2 13 -5z m-2227
-90 c-4 -5 -14 1 -22 11 -21 30 -17 39 8 16 12 -11 18 -23 14 -27z m2421 28
c16 -9 209 -200 263 -261 27 -30 53 -50 66 -50 11 0 29 -8 38 -19 16 -18 15
-19 -21 -26 -34 -6 -40 -4 -71 32 -19 21 -41 48 -49 60 -8 12 -31 27 -51 34
-33 11 -34 13 -17 25 17 12 11 20 -75 101 -51 49 -103 94 -116 101 -13 7 -24
15 -24 18 0 6 37 -4 57 -15z m-1403 -17 c4 -10 1 -14 -6 -12 -15 5 -23 28 -10
28 5 0 13 -7 16 -16z m403 -26 c-3 -8 -6 -5 -6 6 -1 11 2 17 5 13 3 -3 4 -12
1 -19z m-646 -21 c-10 -9 -11 -8 -5 6 3 10 9 15 12 12 3 -3 0 -11 -7 -18z
m-111 -53 c0 -18 -26 -18 -33 0 -3 8 -3 16 0 19 9 10 33 -5 33 -19z m-7 -39
c4 -8 2 -17 -3 -20 -6 -4 -10 3 -10 14 0 25 6 27 13 6z m-811 -27 c26 -26 32
-48 14 -48 -11 0 -20 12 -44 63 -7 14 8 7 30 -15z m1356 10 c-6 -18 -28 -21
-28 -4 0 9 7 16 16 16 9 0 14 -5 12 -12z m378 -3 c19 -14 11 -20 -23 -16 -7 1
-13 -2 -13 -6 0 -15 17 -35 26 -31 5 1 10 -5 12 -14 4 -19 -13 -24 -23 -8 -4
6 -15 8 -26 5 -15 -5 -19 -1 -19 16 0 12 -8 28 -17 36 -16 12 -15 13 10 7 21
-5 27 -2 27 10 0 20 20 21 46 1z m-2411 -15 c3 -5 1 -10 -4 -10 -6 0 -11 5
-11 10 0 6 2 10 4 10 3 0 8 -4 11 -10z m1475 -11 c0 -6 -4 -7 -10 -4 -5 3 -10
11 -10 16 0 6 5 7 10 4 6 -3 10 -11 10 -16z m-823 -36 c-11 -10 -27 8 -27 30
l0 21 16 -22 c9 -13 14 -26 11 -29z m-373 -7 c-4 -19 -1 -26 15 -31 12 -3 21
-13 21 -21 0 -17 -12 -18 -29 -1 -10 9 -15 9 -18 0 -2 -7 -20 -17 -39 -23 -19
-6 -32 -16 -29 -20 12 -19 -31 -47 -63 -42 -27 4 -32 1 -38 -22 -7 -28 -19
-33 -31 -13 -4 7 -25 26 -47 42 -21 16 -33 31 -27 33 7 2 20 -3 29 -11 9 -8
27 -18 40 -21 18 -6 22 -3 22 13 0 12 -4 21 -9 21 -5 0 -12 7 -15 16 -6 15 -4
15 18 1 20 -14 26 -14 42 -2 11 8 14 14 7 15 -7 0 -13 5 -13 11 0 8 5 8 15 -1
8 -7 15 -19 15 -26 0 -8 7 -14 16 -14 14 0 14 3 4 16 -11 13 -10 16 8 21 17 4
21 10 16 30 -7 25 -6 25 37 19 39 -6 42 -5 26 8 -14 10 -15 15 -5 19 29 12 38
7 32 -17z m31 4 c3 -5 1 -10 -4 -10 -6 0 -11 5 -11 10 0 6 2 10 4 10 3 0 8 -4
11 -10z m291 -25 c-10 -8 -23 -12 -29 -8 -11 7 12 23 33 23 12 -1 11 -4 -4
-15z m2187 8 c-7 -2 -21 -2 -30 0 -10 3 -4 5 12 5 17 0 24 -2 18 -5z m-1326
-43 c-14 -21 -15 -21 -20 -1 -3 12 0 19 7 18 6 -1 10 5 8 13 -3 11 -1 12 8 3
10 -9 9 -16 -3 -33z m-2007 22 c0 -9 -44 -32 -58 -32 -10 1 38 40 49 40 5 0 9
-4 9 -8z m2935 -2 c-3 -5 -11 -10 -16 -10 -6 0 -7 5 -4 10 3 6 11 10 16 10 6
0 7 -4 4 -10z m-897 -45 c-3 -3 -9 2 -12 12 -6 14 -5 15 5 6 7 -7 10 -15 7
-18z m123 -2 c0 -16 3 -22 6 -15 6 16 24 16 21 0 -2 -7 -11 -21 -20 -32 -10
-11 -18 -23 -18 -28 0 -4 -7 -8 -16 -8 -8 0 -12 5 -8 11 4 8 0 9 -15 4 -11 -3
-21 -3 -21 0 0 12 27 34 34 28 3 -4 6 7 6 24 0 48 29 63 31 16z m1289 12 c-13
-16 -65 -20 -96 -8 -16 6 -16 7 2 13 10 4 39 8 63 9 38 1 42 -1 31 -14z
m-4324 -13 c7 -10 15 -50 19 -90 6 -66 6 -72 -11 -72 -31 0 -40 13 -40 53 0
23 5 37 13 37 7 0 13 5 13 11 0 6 -11 8 -28 4 -25 -5 -28 -3 -27 19 0 14 9 32
20 40 26 20 28 20 41 -2z m4009 -11 l30 -9 -27 -1 c-51 -2 -29 -20 55 -46 45
-14 109 -40 143 -57 43 -22 66 -29 80 -23 26 11 60 6 118 -17 28 -11 71 -24
96 -29 83 -18 264 -39 325 -37 57 1 117 -10 178 -34 16 -6 39 -12 50 -13 12
-1 33 -7 47 -12 14 -6 50 -21 80 -33 96 -37 130 -54 130 -62 0 -14 -17 -9
-102 31 -46 21 -114 44 -153 51 -38 7 -80 19 -91 26 -29 17 -186 33 -386 39
-37 1 -73 7 -80 12 -12 10 -116 43 -134 43 -4 0 -3 -5 4 -12 29 -29 8 -36 -41
-14 -90 41 -177 76 -186 76 -6 0 -19 4 -29 9 -40 20 -129 54 -155 58 -15 3
-43 -2 -63 -12 -19 -9 -43 -14 -51 -10 -24 8 -4 23 37 28 19 3 46 10 60 16 20
9 6 11 -73 8 -71 -3 -95 -1 -87 7 29 29 155 39 225 17z m-1961 -9 c5 -9 -10
-18 -65 -40 -17 -7 -57 -8 -111 -3 -47 4 -100 6 -119 4 -32 -3 -33 -3 -9 8 14
5 79 11 144 12 85 1 121 6 124 15 4 14 28 16 36 4z m2056 -7 c0 -8 -7 -15 -15
-15 -8 0 -15 7 -15 15 0 8 7 15 15 15 8 0 15 -7 15 -15z m-3360 -5 c0 -5 -2
-10 -4 -10 -3 0 -8 5 -11 10 -3 6 -1 10 4 10 6 0 11 -4 11 -10z m3640 -8 c-8
-2 -28 -8 -43 -13 -21 -6 -27 -5 -24 4 4 13 56 27 72 18 5 -2 2 -6 -5 -9z
m705 8 c3 -5 1 -10 -4 -10 -6 0 -11 5 -11 10 0 6 2 10 4 10 3 0 8 -4 11 -10z
m-3730 -28 c-3 -3 -11 0 -18 7 -9 10 -8 11 6 5 10 -3 15 -9 12 -12z m972 12
c-3 -3 -12 -4 -19 -1 -8 3 -5 6 6 6 11 1 17 -2 13 -5z m2788 -4 c3 -5 1 -10
-4 -10 -6 0 -11 5 -11 10 0 6 2 10 4 10 3 0 8 -4 11 -10z m-2165 -20 c0 -5 -5
-10 -11 -10 -5 0 -7 5 -4 10 3 6 8 10 11 10 2 0 4 -4 4 -10z m2208 -8 c2 -7
-1 -12 -7 -12 -6 0 -11 5 -11 11 0 5 -5 7 -12 3 -7 -4 -8 -3 -4 5 9 14 28 10
34 -7z m-3718 -23 c0 -6 -4 -7 -10 -4 -5 3 -10 11 -10 16 0 6 5 7 10 4 6 -3
10 -11 10 -16z m488 12 c8 -1 12 -8 10 -17 -3 -14 -25 -17 -178 -18 -160 -1
-179 -3 -225 -25 -27 -12 -70 -29 -95 -37 -25 -8 -54 -19 -65 -24 -52 -25 -84
-33 -135 -36 -30 -2 -82 -5 -115 -7 -33 -2 -78 -9 -100 -15 -48 -14 -155 -16
-155 -3 0 5 15 9 33 9 17 0 50 8 72 17 37 16 146 27 264 26 24 0 56 6 72 14
15 8 37 15 49 15 11 0 20 4 20 9 0 5 10 13 22 17 12 3 28 13 36 20 7 8 25 17
40 20 15 4 50 14 79 23 40 12 88 16 205 14 84 -1 159 -2 166 -2z m162 -1 c0
-5 -4 -10 -10 -10 -5 0 -10 5 -10 10 0 6 5 10 10 10 6 0 10 -4 10 -10z m2230
0 c0 -13 -11 -13 -30 0 -12 8 -11 10 8 10 12 0 22 -4 22 -10z m790 -5 c0 -8
-7 -15 -15 -15 -8 0 -15 -5 -15 -12 0 -6 -2 -9 -5 -7 -2 3 -2 15 2 27 6 25 33
30 33 7z m-863 -1 c-3 -3 -12 -4 -19 -1 -8 3 -5 6 6 6 11 1 17 -2 13 -5z m803
-4 c0 -5 -2 -10 -4 -10 -3 0 -8 5 -11 10 -3 6 -1 10 4 10 6 0 11 -4 11 -10z
m-2073 -22 c-3 -8 -6 -5 -6 6 -1 11 2 17 5 13 3 -3 4 -12 1 -19z m1448 2 c-3
-5 -10 -10 -16 -10 -5 0 -9 5 -9 10 0 6 7 10 16 10 8 0 12 -4 9 -10z m806 -7
c16 -10 29 -21 29 -25 0 -4 6 -8 13 -8 16 -1 77 -56 77 -71 0 -10 -59 26 -72
46 -4 5 -8 6 -8 1 0 -6 -14 5 -31 22 -17 18 -38 32 -45 32 -8 0 -14 5 -14 10
0 15 18 12 51 -7z m-3901 -12 c0 -4 -22 -7 -50 -7 -51 0 -69 12 -27 18 30 4
77 -3 77 -11z m3853 4 c27 -12 20 -26 -9 -15 -14 6 -30 8 -35 4 -5 -3 -19 -2
-32 2 -21 7 -21 7 -2 14 22 8 51 7 78 -5z m-648 -25 c3 -5 -1 -10 -9 -10 -8 0
-18 5 -21 10 -3 6 1 10 9 10 8 0 18 -4 21 -10z m635 -7 c11 -10 24 -18 29 -18
4 0 15 -7 23 -15 40 -37 83 -65 102 -65 13 0 22 -7 24 -20 3 -22 41 -42 132
-70 30 -10 64 -26 76 -36 11 -11 26 -19 32 -19 9 0 9 -4 0 -19 -7 -11 -17 -17
-23 -13 -5 3 -20 5 -33 3 -12 -1 -25 4 -28 12 -3 8 -14 12 -28 10 -13 -3 -28
2 -35 11 -8 9 -10 16 -7 16 4 0 0 7 -8 16 -9 8 -20 12 -26 9 -6 -3 -13 1 -16
9 -3 8 -34 31 -68 50 -34 19 -74 46 -89 60 -15 14 -32 26 -37 26 -5 0 -18 13
-29 29 -31 44 -27 55 9 24z m-3990 -3 c0 -5 -12 -10 -27 -10 -22 0 -25 2 -13
10 20 13 40 13 40 0z m4425 -50 c3 -11 3 -25 0 -30 -4 -6 3 -20 16 -31 24 -21
22 -33 -5 -23 -9 3 -19 17 -22 30 -3 13 -15 26 -25 29 -24 8 -24 21 -1 34 25
15 30 13 37 -9z m-5534 -13 c-16 -20 -79 -52 -87 -45 -10 11 6 29 40 44 42 18
62 18 47 1z m728 -12 c-21 -12 -22 -13 -3 -17 10 -2 -2 -5 -28 -5 -67 -2 -63
22 6 37 41 9 55 0 25 -15z m101 15 c0 -13 -46 -24 -60 -15 -9 6 -9 10 1 16 19
12 59 11 59 -1z m3583 -5 c31 -6 37 -25 7 -25 -23 0 -70 20 -70 31 0 7 5 7 63
-6z m-2303 -15 c0 -5 -4 -10 -10 -10 -5 0 -10 5 -10 10 0 6 5 10 10 10 6 0 10
-4 10 -10z m2104 -15 c3 -9 0 -15 -9 -15 -8 0 -15 7 -15 15 0 8 4 15 9 15 5 0
11 -7 15 -15z m1111 5 c3 -5 -1 -10 -9 -10 -9 0 -16 5 -16 10 0 6 4 10 9 10 6
0 13 -4 16 -10z m-645 -9 c0 -5 -14 -11 -31 -15 -46 -9 -61 -7 -53 5 3 6 15 9
25 6 10 -3 22 -1 25 4 7 12 34 12 34 0z m-4082 -13 c-2 -6 -28 -20 -57 -30
-30 -10 -59 -22 -65 -27 -17 -14 -106 -30 -112 -20 -6 10 16 20 87 40 24 7 49
17 56 21 29 22 97 34 91 16z m3977 2 c11 -18 -23 -22 -52 -6 l-28 15 37 1 c20
0 40 -5 43 -10z m-973 -40 c1 -14 -24 -90 -30 -94 -4 -3 -14 -1 -22 4 -12 7
-11 13 8 33 13 13 22 28 21 33 -4 21 2 35 12 32 6 -2 11 -6 11 -8z m608 -66
c0 -2 -9 -4 -21 -4 -11 0 -18 4 -14 10 5 8 35 3 35 -6z m-2070 -31 c1 -25 30
-81 30 -57 0 14 20 -19 20 -33 0 -23 -30 -14 -42 12 -7 15 -14 21 -18 15 -7
-11 19 -68 60 -135 14 -23 29 -35 44 -35 32 0 76 -46 76 -79 0 -15 5 -32 10
-37 12 -12 2 -47 -10 -39 -5 3 -16 29 -24 58 -13 45 -22 57 -53 73 -48 25 -90
70 -104 114 -6 19 -15 39 -19 44 -5 5 -6 15 -3 22 3 8 0 27 -5 44 -6 16 -7 32
-2 35 5 3 11 -3 13 -12 3 -11 5 -8 6 10 0 15 6 27 11 27 6 0 10 -12 10 -27z
m1938 -12 c10 -6 9 -10 -7 -14 -21 -5 -36 5 -24 17 8 8 15 7 31 -3z m-4019
-23 c42 13 145 15 174 4 10 -4 49 -3 87 2 61 8 72 7 89 -8 15 -14 39 -18 107
-19 49 -1 89 -6 91 -12 4 -12 -139 -12 -422 -1 -196 8 -215 10 -215 31 0 12 5
12 25 3 19 -8 35 -8 64 0z m4821 0 c0 -4 7 -8 15 -8 8 0 15 5 15 11 0 5 5 7
10 4 6 -4 4 -12 -6 -22 -11 -12 -18 -13 -27 -4 -15 15 -27 14 -27 -4 0 -19 -9
-19 -32 2 -26 24 -22 31 17 30 19 -1 35 -5 35 -9z m89 -15 c-8 -9 -16 -10 -22
-4 -13 13 0 31 19 24 11 -4 12 -8 3 -20z m581 17 c0 -5 -2 -10 -4 -10 -3 0 -8
5 -11 10 -3 6 -1 10 4 10 6 0 11 -4 11 -10z m-314 -18 c-8 -14 -126 -24 -161
-14 l-30 9 38 4 c21 3 41 1 43 -3 3 -5 11 -5 17 0 7 5 28 9 46 11 19 1 37 4
40 6 7 8 13 -3 7 -13z m-1108 -19 c-3 -14 -14 -18 -56 -19 -29 -1 -58 -6 -65
-13 -6 -6 -20 -11 -30 -11 -10 0 -26 -9 -35 -20 -19 -21 -72 -38 -72 -22 0 5
11 13 25 16 14 4 25 11 25 17 0 17 72 43 124 44 28 1 52 7 54 13 6 19 34 14
30 -5z m1274 7 c45 -13 61 -32 21 -25 -37 7 -76 13 -86 14 -13 1 3 21 16 21 7
0 29 -5 49 -10z m-2782 -10 c0 -5 -2 -10 -4 -10 -3 0 -8 5 -11 10 -3 6 -1 10
4 10 6 0 11 -4 11 -10z m1914 -11 c-8 -13 -21 -11 -27 5 -4 10 0 12 14 9 10
-3 16 -9 13 -14z m-3854 1 c0 -5 -7 -7 -15 -4 -8 4 -15 8 -15 10 0 2 7 4 15 4
8 0 15 -4 15 -10z m2870 2 c0 -4 -7 -18 -16 -31 -12 -16 -19 -20 -27 -12 -7 7
-5 17 8 31 18 20 35 26 35 12z m904 -1 c7 -11 -17 -21 -52 -21 -39 0 -11 20
40 29 4 0 9 -3 12 -8z m-2724 -21 c-6 -11 -15 -18 -21 -15 -15 10 -11 23 9 28
9 3 18 5 20 6 1 0 -2 -8 -8 -19z m1841 -33 c-6 -6 -11 -21 -11 -32 0 -25 -45
-70 -80 -80 -14 -4 -48 -18 -77 -31 -46 -21 -53 -28 -71 -76 -25 -67 -45 -77
-36 -17 4 24 13 50 21 57 7 7 13 17 13 21 0 3 12 12 28 18 15 7 36 18 47 25
54 34 71 42 86 40 18 -3 59 58 59 87 0 9 6 23 13 30 10 10 13 8 15 -10 2 -12
-1 -26 -7 -32z m1245 30 c11 -11 -29 -8 -46 3 -12 8 -9 10 12 7 15 -1 30 -6
34 -10z m711 -4 c2 -6 -5 -14 -16 -18 -26 -8 -63 3 -55 16 3 6 12 8 20 5 7 -3
16 -1 20 5 7 12 26 7 31 -8z m-3237 -9 c0 -14 -3 -14 -15 -4 -8 7 -15 14 -15
16 0 2 7 4 15 4 8 0 15 -7 15 -16z m2863 -2 c-12 -9 -50 -11 -130 -9 -167 5
-161 22 8 22 115 0 136 -2 122 -13z m122 9 c9 -16 -9 -18 -35 -5 l-25 14 27 0
c15 0 29 -4 33 -9z m139 -12 c16 -14 3 -18 -42 -12 -35 5 -40 8 -30 20 12 15
54 10 72 -8z m-2866 -1 c17 -17 15 -28 -4 -28 -10 0 -14 6 -11 14 3 8 1 17 -6
20 -7 2 -7 5 -1 5 5 1 15 -4 22 -11z m1267 -28 c3 -5 -3 -10 -14 -10 -12 0
-21 5 -21 10 0 6 6 10 14 10 8 0 18 -4 21 -10z m-741 -15 c-4 -8 -12 -15 -20
-15 -8 0 -14 7 -14 15 0 8 9 15 20 15 13 0 18 -5 14 -15z m-2871 -15 c-27 -24
-186 -37 -180 -15 1 6 12 9 23 7 12 -1 32 2 45 7 28 11 124 12 112 1z m2727
-20 c0 -5 -7 -10 -15 -10 -8 0 -15 5 -15 10 0 6 7 10 15 10 8 0 15 -4 15 -10z
m40 -78 c0 -4 -5 -13 -12 -20 -20 -20 1 -26 22 -7 26 23 37 13 21 -21 -8 -19
-9 -30 -1 -38 7 -7 10 -5 10 7 0 9 7 17 16 17 11 0 15 6 11 19 -3 14 -1 18 9
14 8 -3 14 -1 14 4 0 5 6 10 14 10 13 0 13 -5 0 -35 -8 -19 -14 -36 -14 -38 0
-2 -17 -12 -38 -23 -46 -23 -65 -15 -64 28 0 21 -4 31 -14 31 -17 0 -18 14 -2
40 13 20 28 27 28 12z m2350 -22 c0 -5 -6 -10 -13 -10 -7 0 -19 -9 -27 -20
-19 -27 -32 -25 -28 3 2 14 12 24 28 28 38 10 40 10 40 -1z m-5194 -23 c28
-29 52 -79 47 -94 -3 -8 4 -13 16 -13 11 0 25 -9 31 -19 5 -11 26 -37 46 -58
20 -21 47 -56 60 -78 13 -23 37 -51 54 -63 16 -13 30 -29 30 -37 0 -7 9 -17
20 -20 21 -7 29 -45 9 -45 -23 0 -47 21 -53 45 -4 14 -10 23 -15 21 -10 -6
-67 53 -126 132 -21 28 -43 52 -47 52 -4 0 -8 7 -8 15 0 9 -7 18 -15 21 -8 4
-15 14 -15 23 0 10 -13 30 -30 46 -16 16 -30 34 -30 41 0 6 -7 17 -15 24 -16
13 -11 30 8 30 7 0 21 -10 33 -23z m2380 -33 c-19 -19 -21 -2 -4 29 11 19 13
20 16 5 2 -10 -4 -25 -12 -34z m166 19 c10 -9 18 -22 18 -29 0 -7 6 -14 13
-17 9 -3 9 -7 -1 -20 -8 -9 -11 -21 -7 -27 3 -5 1 -10 -4 -10 -6 0 -11 11 -11
24 0 16 -11 32 -32 47 -18 12 -35 24 -37 25 -1 2 0 7 4 13 9 16 36 13 57 -6z
m-212 -41 c0 -13 -23 -32 -39 -32 -11 0 -10 4 4 20 19 21 35 26 35 12z m-112
-40 c6 -18 -15 -14 -22 4 -4 10 -1 14 6 12 6 -2 14 -10 16 -16z m137 -10 c-14
-2 -25 -10 -25 -17 0 -15 -18 -30 -26 -22 -3 3 0 15 6 27 14 26 52 42 62 26 5
-7 -2 -12 -17 -14z m368 15 c3 -8 -1 -14 -9 -14 -15 0 -18 9 -7 20 9 9 10 9
16 -6z m297 -2 c0 -9 -11 -26 -25 -39 -14 -13 -25 -28 -25 -34 0 -6 -14 -38
-31 -71 -26 -52 -31 -69 -27 -111 6 -55 3 -58 -24 -33 -30 27 -22 71 28 153
29 49 36 92 18 119 -14 20 -14 21 10 11 18 -6 28 -5 36 6 16 19 40 18 40 -1z
m-162 -23 c2 -7 -3 -12 -12 -12 -9 0 -16 7 -16 16 0 17 22 14 28 -4z m-428
-17 c0 -7 12 -27 26 -44 14 -17 24 -36 22 -42 -2 -7 -24 12 -48 41 -34 40 -40
54 -30 60 17 10 30 4 30 -15z m87 19 c-3 -3 -12 -4 -19 -1 -8 3 -5 6 6 6 11 1
17 -2 13 -5z m618 -34 c-3 -5 -12 -10 -18 -10 -7 0 -6 4 3 10 19 12 23 12 15
0z m-45 -67 c0 -8 -12 -25 -27 -38 -20 -18 -24 -27 -16 -33 13 -8 12 -22 -8
-69 -17 -43 -47 -45 -41 -4 2 16 -1 31 -6 35 -12 7 -4 46 10 46 5 0 14 12 21
28 24 53 40 72 54 60 7 -6 13 -17 13 -25z m-2838 7 c12 -11 17 -20 11 -20 -5
0 -18 9 -28 20 -10 11 -15 20 -11 20 4 0 16 -9 28 -20z m2334 11 c11 9 14 8
14 -5 0 -9 -4 -16 -10 -16 -15 0 -12 -19 5 -36 17 -17 20 -34 6 -34 -14 0 -71
69 -71 86 0 12 4 13 21 4 15 -9 24 -8 35 1z m-148 -33 c17 -17 15 -38 -3 -38
-8 0 -15 4 -15 9 0 5 -3 16 -6 25 -7 19 7 21 24 4z m80 -86 c-4 -47 -28 -56
-27 -10 0 18 -2 47 -6 63 l-6 30 21 -24 c15 -17 20 -35 18 -59z m450 58 c-7
-10 -14 -17 -17 -15 -4 4 18 35 25 35 2 0 -1 -9 -8 -20z m-568 -51 c0 -12 7
-19 20 -19 11 0 20 -5 20 -11 0 -5 -4 -8 -9 -4 -6 3 -16 -1 -23 -8 -14 -16
-22 -10 -51 36 -10 16 -16 35 -13 43 5 13 9 12 31 -2 14 -9 25 -25 25 -35z
m750 46 c0 -12 -32 -54 -46 -59 -12 -5 -12 -2 -3 17 6 12 16 28 22 35 10 12
27 17 27 7z m1855 -4 c3 -5 -4 -16 -16 -24 -11 -8 -33 -39 -49 -68 -15 -30
-54 -84 -86 -122 -65 -76 -391 -408 -439 -446 -16 -14 -59 -50 -95 -81 -72
-62 -149 -115 -225 -155 -27 -14 -59 -34 -70 -43 -11 -9 -29 -22 -40 -28 -11
-6 -33 -18 -50 -27 -58 -31 -164 -77 -180 -77 -17 0 -57 -18 -65 -30 -3 -4
-18 -11 -35 -17 -18 -6 -32 -18 -35 -33 -5 -20 -7 -21 -19 -6 -24 29 9 60 101
96 101 39 219 90 233 101 6 4 50 28 98 52 49 25 96 52 105 60 10 9 30 22 45
30 45 24 300 250 447 397 121 120 260 286 260 310 0 4 4 10 8 12 5 2 26 27 46
56 38 52 50 60 61 43z m-2045 -60 c0 -6 -5 -13 -11 -17 -8 -4 -8 -9 0 -17 6
-6 11 -18 11 -26 -1 -13 -4 -12 -15 3 -20 26 -19 66 0 66 8 0 15 -4 15 -9z
m-480 -95 c0 -15 -18 -31 -26 -23 -7 7 7 37 17 37 5 0 9 -6 9 -14z m-2089 -52
c10 -9 16 -21 13 -26 -3 -5 8 -21 25 -37 17 -16 31 -36 31 -43 0 -8 9 -23 20
-33 11 -10 20 -24 20 -31 0 -7 10 -19 22 -25 13 -7 60 -46 104 -88 45 -42 99
-89 119 -106 20 -16 44 -37 53 -45 9 -9 40 -33 67 -55 28 -21 59 -47 70 -57
35 -32 77 -61 180 -125 55 -34 105 -66 111 -71 24 -21 55 -32 88 -32 42 0 46
-10 10 -27 -23 -11 -34 -8 -98 24 -39 20 -84 46 -101 57 -16 12 -37 26 -46 31
-58 36 -130 87 -165 119 -23 20 -59 48 -80 62 -92 62 -323 282 -400 379 -21
28 -47 56 -56 63 -10 7 -18 21 -18 31 0 10 -11 26 -25 35 -14 9 -25 21 -25 26
0 13 59 -6 81 -26z m2543 -37 c-3 -9 -10 -17 -15 -17 -11 0 -12 34 -2 44 11
11 24 -9 17 -27z m-354 -5 c0 -23 19 -42 35 -35 18 6 43 -103 28 -118 -17 -17
-35 1 -30 28 6 31 -24 64 -55 60 -26 -2 -33 18 -19 56 12 30 41 37 41 9z m318
-134 c-2 -13 -7 -23 -12 -23 -5 0 -11 10 -12 23 -3 15 1 22 12 22 10 0 14 -7
12 -22z m-3 -107 c3 -5 1 -12 -5 -16 -5 -3 -10 1 -10 9 0 18 6 21 15 7z m135
-30 c0 -6 -4 -13 -10 -16 -5 -3 -10 1 -10 9 0 9 5 16 10 16 6 0 10 -4 10 -9z
m-297 -165 c43 -38 43 -39 34 -80 -13 -56 -21 -71 -40 -71 -9 0 -23 -9 -31
-20 -18 -25 -30 -14 -22 20 4 17 13 25 28 25 19 0 20 3 14 57 -4 32 -13 68
-21 80 -14 21 -21 42 -11 32 3 -2 25 -21 49 -43z m-45 -54 c3 -59 -17 -80 -43
-46 -19 25 -19 54 1 82 24 34 39 21 42 -36z m-78 -64 c11 -21 20 -45 20 -53 0
-31 -17 -13 -45 48 -16 34 -31 67 -34 72 -14 30 42 -34 59 -67z m-390 28 c0
-27 -15 -42 -25 -26 -8 13 3 50 16 50 5 0 9 -11 9 -24z m735 -56 c3 -5 -1 -10
-9 -10 -9 0 -16 5 -16 10 0 6 4 10 9 10 6 0 13 -4 16 -10z m-477 -48 c2 -7 -2
-10 -12 -6 -9 3 -16 11 -16 16 0 13 23 5 28 -10z m477 -12 c3 -5 1 -10 -4 -10
-6 0 -11 5 -11 10 0 6 2 10 4 10 3 0 8 -4 11 -10z m216 -67 c13 -15 12 -15 -8
-4 -24 12 -29 21 -14 21 5 0 15 -7 22 -17z m39 -23 c0 -5 -4 -10 -10 -10 -5 0
-10 5 -10 10 0 6 5 10 10 10 6 0 10 -4 10 -10z m-230 -36 c0 -8 -4 -12 -10 -9
-5 3 -10 13 -10 21 0 8 5 12 10 9 6 -3 10 -13 10 -21z m-765 -4 c3 -5 1 -10
-4 -10 -6 0 -11 5 -11 10 0 6 2 10 4 10 3 0 8 -4 11 -10z m-689 -69 c71 -32
152 -66 179 -76 28 -10 57 -24 66 -32 8 -7 21 -13 27 -13 20 0 62 -23 57 -31
-3 -4 -17 -4 -33 1 -15 5 -45 14 -67 20 -22 7 -110 43 -195 81 -85 38 -160 69
-167 69 -14 0 -18 22 -6 33 9 9 -5 14 139 -52z m1429 -5 c-32 -48 -97 -56
-168 -19 -15 7 -32 11 -37 8 -18 -11 -100 -16 -100 -6 0 5 8 12 18 15 34 10
138 9 159 -2 33 -18 71 -14 90 8 10 11 26 20 35 20 17 0 17 -2 3 -24z m190 -5
c16 -16 60 -49 97 -74 64 -42 83 -68 33 -45 -29 13 -75 3 -75 -17 0 -40 -70
10 -94 68 -8 20 -12 37 -8 37 16 -1 52 -40 52 -57 0 -37 19 -47 54 -27 21 13
26 5 -44 67 -29 25 -64 77 -53 77 4 0 21 -13 38 -29z m-530 -11 c3 -5 -1 -10
-10 -10 -9 0 -13 5 -10 10 3 6 8 10 10 10 2 0 7 -4 10 -10z m-465 -55 c-7 -9
-15 -13 -17 -11 -7 7 7 26 19 26 6 0 6 -6 -2 -15z m1317 -24 c32 -8 31 -24 0
-35 -17 -7 -34 -6 -49 1 -13 6 -35 14 -49 17 -15 3 -29 13 -33 21 -5 13 3 14
52 8 31 -3 67 -9 79 -12z m-1199 -23 c0 -47 -7 -68 -24 -68 -17 0 -17 0 -3 56
13 52 28 58 27 12z m1335 -19 c22 -25 14 -38 -13 -21 -11 7 -27 12 -35 12 -16
0 -20 12 -8 23 13 13 39 7 56 -14z m-743 -35 c0 -24 -8 -44 -26 -62 l-25 -27
6 40 c15 87 45 120 45 49z m485 36 c3 -5 -1 -10 -9 -10 -9 0 -16 5 -16 10 0 6
4 10 9 10 6 0 13 -4 16 -10z m-280 -8 c6 -4 17 -16 25 -26 14 -18 13 -19 -5
-12 -11 4 -27 9 -35 10 -8 2 -14 6 -12 9 1 4 2 12 2 17 0 12 11 13 25 2z m325
-6 c0 -3 -4 -8 -10 -11 -5 -3 -10 -1 -10 4 0 6 5 11 10 11 6 0 10 -2 10 -4z
m-1385 -26 c-3 -5 -12 -10 -18 -10 -7 0 -30 -9 -52 -20 -21 -11 -41 -17 -44
-15 -10 11 27 36 60 42 19 2 36 7 38 9 9 8 22 4 16 -6z m785 1 c0 -6 -4 -13
-10 -16 -5 -3 -10 1 -10 9 0 9 5 16 10 16 6 0 10 -4 10 -9z m-500 -31 c0 -11
-4 -20 -10 -20 -5 0 -10 9 -10 20 0 11 5 20 10 20 6 0 10 -9 10 -20z m220 -24
c0 -6 -7 -1 -15 10 -8 10 -15 23 -15 28 0 6 7 1 15 -10 8 -10 15 -23 15 -28z
m-394 19 c7 -17 37 -20 65 -5 13 8 19 7 19 0 0 -6 -16 -18 -35 -26 -41 -17
-75 -5 -75 26 0 23 18 27 26 5z m424 0 c0 -8 -4 -15 -10 -15 -5 0 -10 7 -10
15 0 8 5 15 10 15 6 0 10 -7 10 -15z m492 -7 c-6 -6 -15 -8 -19 -4 -4 4 -1 11
7 16 19 12 27 3 12 -12z m-962 -8 c0 -11 -4 -20 -9 -20 -14 0 -23 18 -16 30
10 17 25 11 25 -10z m1090 -1 c0 -6 -4 -7 -10 -4 -5 3 -10 11 -10 16 0 6 5 7
10 4 6 -3 10 -11 10 -16z m-524 -35 c-3 -9 -6 -24 -6 -34 0 -11 -13 -25 -30
-34 -16 -8 -30 -13 -30 -11 0 4 23 47 40 73 17 25 35 30 26 6z m-286 -4 c0 -5
-4 -10 -10 -10 -5 0 -10 5 -10 10 0 6 5 10 10 10 6 0 10 -4 10 -10z m610 -21
c0 -10 -4 -19 -10 -19 -5 0 -10 12 -10 26 0 14 4 23 10 19 6 -3 10 -15 10 -26z
m-720 -19 c0 -5 -4 -10 -10 -10 -5 0 -10 5 -10 10 0 6 5 10 10 10 6 0 10 -4
10 -10z m517 -95 c-7 -57 -17 -73 -29 -51 -10 18 10 96 25 96 5 0 7 -20 4 -45z
m-53 1 c-6 -16 -24 -23 -24 -8 0 10 22 33 27 28 2 -2 1 -11 -3 -20z m46 -106
c0 -4 -6 -20 -14 -34 -11 -23 -15 -24 -26 -11 -10 12 -9 16 5 21 10 4 15 14
12 25 -3 12 0 16 9 12 8 -3 14 -9 14 -13z m-140 -35 c0 -26 -14 -33 -25 -15
-9 14 1 40 15 40 5 0 10 -11 10 -25z"/>
<path d="M4517 6316 c15 -25 81 -77 87 -68 3 6 -10 20 -29 33 -19 13 -35 27
-35 30 0 4 -7 10 -15 13 -11 4 -13 2 -8 -8z"/>
<path d="M6595 5691 c-3 -6 -11 -9 -16 -6 -5 4 -9 1 -9 -4 0 -6 6 -11 14 -11
16 0 31 18 23 26 -3 3 -8 0 -12 -5z"/>
<path d="M6516 5606 c-20 -18 -36 -36 -36 -40 0 -11 68 44 74 60 8 21 1 18
-38 -20z"/>
<path d="M6397 5493 c-13 -13 -20 -15 -25 -6 -6 9 -11 7 -20 -7 -11 -18 -10
-20 11 -20 13 0 34 11 47 25 26 28 14 35 -13 8z"/>
<path d="M5155 5770 c-3 -5 -1 -10 4 -10 6 0 11 5 11 10 0 6 -2 10 -4 10 -3 0
-8 -4 -11 -10z"/>
<path d="M5160 5711 c0 -5 5 -13 10 -16 6 -3 10 -2 10 4 0 5 -4 13 -10 16 -5
3 -10 2 -10 -4z"/>
<path d="M5180 5618 c0 -16 5 -28 10 -28 13 0 13 20 0 40 -8 12 -10 9 -10 -12z"/>
<path d="M5093 5547 c-49 -59 -47 -86 3 -30 31 35 50 71 42 77 -1 2 -22 -19
-45 -47z"/>
<path d="M5163 5562 c22 -24 21 -31 -3 -25 -11 3 -20 0 -20 -6 0 -6 6 -11 14
-11 8 0 17 -11 20 -25 6 -22 9 -23 26 -13 26 16 26 44 0 58 -11 6 -20 17 -20
25 0 8 -7 15 -17 15 -15 0 -15 -1 0 -18z m37 -36 c0 -3 -4 -8 -10 -11 -5 -3
-10 -1 -10 4 0 6 5 11 10 11 6 0 10 -2 10 -4z"/>
<path d="M3590 4716 c0 -9 5 -16 10 -16 6 0 10 4 10 9 0 6 -4 13 -10 16 -5 3
-10 -1 -10 -9z"/>
<path d="M2170 3930 c-13 -8 -12 -10 3 -10 9 0 17 5 17 10 0 12 -1 12 -20 0z"/>
<path d="M5163 4170 c0 -16 4 -27 9 -24 4 3 8 16 8 30 0 13 -4 24 -8 24 -5 0
-9 -13 -9 -30z"/>
<path d="M5171 4113 c0 -4 4 -17 9 -28 8 -19 9 -19 9 2 1 12 -3 25 -9 28 -5 3
-10 3 -9 -2z"/>
<path d="M5041 4018 c-1 -16 4 -28 9 -28 12 0 12 8 0 35 -8 18 -9 17 -9 -7z"/>
<path d="M5141 4024 c0 -11 3 -14 6 -6 3 7 2 16 -1 19 -3 4 -6 -2 -5 -13z"/>
<path d="M5081 3944 c0 -11 3 -14 6 -6 3 7 2 16 -1 19 -3 4 -6 -2 -5 -13z"/>
<path d="M5047 3873 c-4 -3 -7 -11 -7 -17 0 -6 5 -5 12 2 6 6 9 14 7 17 -3 3
-9 2 -12 -2z"/>
<path d="M5130 3847 c0 -20 5 -27 20 -27 11 0 20 4 20 8 0 5 -9 17 -20 27 -20
18 -20 17 -20 -8z"/>
<path d="M4841 3544 c0 -11 3 -14 6 -6 3 7 2 16 -1 19 -3 4 -6 -2 -5 -13z"/>
<path d="M4925 3490 c-3 -5 -1 -10 4 -10 6 0 11 5 11 10 0 6 -2 10 -4 10 -3 0
-8 -4 -11 -10z"/>
<path d="M5180 3484 c0 -3 12 -21 27 -40 l26 -35 34 32 c38 38 41 49 13 49
-11 0 -20 -6 -20 -13 0 -19 -20 -36 -36 -30 -8 3 -14 14 -14 24 0 10 -7 19
-15 19 -8 0 -15 -3 -15 -6z"/>
<path d="M4678 3473 c6 -2 18 -2 25 0 6 3 1 5 -13 5 -14 0 -19 -2 -12 -5z"/>
<path d="M5089 3450 c-13 -10 -19 -19 -13 -20 7 0 22 9 35 20 13 10 19 19 13
20 -7 0 -22 -9 -35 -20z"/>
<path d="M5292 3439 c-10 -15 -9 -19 2 -19 21 0 40 26 23 33 -7 3 -19 -4 -25
-14z"/>
<path d="M5095 3404 c12 -11 35 -29 53 -42 l32 -22 37 20 c21 11 43 20 50 20
7 0 13 7 13 15 0 8 -4 15 -9 15 -5 0 -14 -7 -21 -15 -17 -21 -50 -19 -51 3 0
13 -3 11 -9 -6 -8 -19 -13 -21 -29 -13 -11 6 -21 15 -23 20 -1 5 -16 13 -33
17 -30 7 -30 6 -10 -12z"/>
<path d="M5310 3400 c0 -5 7 -10 16 -10 8 0 12 5 9 10 -3 6 -10 10 -16 10 -5
0 -9 -4 -9 -10z"/>
<path d="M4980 3396 c0 -3 10 -17 22 -31 14 -17 24 -21 29 -14 4 6 12 8 18 5
6 -4 9 -12 5 -17 -3 -6 3 -5 14 2 25 15 23 19 -21 35 -17 6 -40 15 -49 19 -10
4 -18 4 -18 1z"/>
<path d="M4800 3337 c-19 -22 -30 -26 -52 -22 -16 4 -28 2 -28 -3 0 -6 -6 -12
-12 -15 -7 -2 -4 -3 7 -2 11 1 31 0 44 -4 22 -6 23 -8 7 -23 -9 -9 -12 -19 -7
-23 5 -3 12 -1 16 5 3 5 16 10 28 10 21 1 21 1 3 15 -17 13 -17 17 -5 32 8 10
18 21 23 24 5 4 6 13 4 20 -3 9 -12 5 -28 -14z"/>
<path d="M5263 3338 c-22 -28 -24 -38 -9 -32 9 3 16 12 16 19 0 7 6 16 13 18
7 4 8 6 1 6 -6 1 -16 -5 -21 -11z"/>
<path d="M5475 3340 c-7 -12 2 -30 16 -30 12 0 12 27 0 35 -5 3 -12 1 -16 -5z"/>
<path d="M5536 3282 c-2 -4 7 -17 20 -29 13 -12 24 -19 24 -15 0 3 5 1 12 -6
15 -15 38 -16 38 -2 0 6 -7 10 -15 10 -8 0 -15 5 -15 10 0 6 -7 10 -15 10 -8
0 -15 4 -15 9 0 12 -28 22 -34 13z"/>
<path d="M4789 3163 c-13 -16 -12 -17 4 -4 9 7 17 15 17 17 0 8 -8 3 -21 -13z"/>
<path d="M4850 3171 c0 -6 -13 -18 -29 -27 -17 -10 -28 -21 -25 -26 3 -4 1 -8
-4 -8 -10 0 -35 -50 -28 -57 2 -3 18 6 35 18 19 14 46 23 66 23 21 0 34 4 31
11 -2 5 -9 9 -15 7 -7 -1 -10 2 -6 7 3 6 12 8 19 5 24 -9 27 25 3 41 -24 17
-47 20 -47 6z"/>
<path d="M4740 3150 c0 -6 -4 -8 -10 -5 -16 10 -11 -1 7 -16 14 -12 15 -12 9
0 -7 10 -3 12 13 6 27 -8 27 1 1 15 -14 8 -20 8 -20 0z"/>
<path d="M4717 3114 c-2 -5 -8 -25 -12 -44 l-7 -35 21 24 c11 13 21 27 21 30
0 14 -18 33 -23 25z"/>
<path d="M5575 3024 c10 -84 24 -95 39 -31 5 20 3 27 -9 27 -11 0 -15 8 -13
26 2 16 -3 29 -11 32 -11 4 -12 -6 -6 -54z"/>
<path d="M4705 3008 c12 -44 29 -68 47 -68 10 0 18 -4 18 -10 0 -5 13 -10 29
-10 25 0 28 -3 24 -22 -4 -22 -4 -22 10 -5 10 12 17 14 22 8 9 -16 -3 -31 -26
-31 -11 0 -17 -4 -14 -10 3 -5 15 -10 27 -10 11 0 22 -8 25 -20 3 -11 10 -20
15 -20 5 0 7 4 3 9 -3 5 4 12 15 16 28 9 25 27 -4 19 -30 -7 -38 6 -20 31 12
16 16 17 23 6 6 -9 11 -10 15 -2 4 6 12 11 17 11 6 0 7 -4 4 -10 -3 -5 -1 -10
4 -10 6 0 11 5 11 11 0 5 4 8 9 5 10 -6 25 43 17 52 -3 3 -14 -2 -24 -11 -23
-21 -40 -21 -88 -1 -34 15 -36 18 -19 24 19 7 19 7 -2 14 -13 4 -23 14 -23 21
0 24 -19 26 -40 5 -21 -21 -40 -19 -40 5 0 11 -20 25 -36 25 -3 0 -3 -10 1
-22z"/>
<path d="M5483 2928 c-2 -5 12 -8 31 -8 20 0 39 0 43 -1 4 0 9 4 11 9 3 10
-78 10 -85 0z"/>
<path d="M5327 2923 c-4 -3 -7 -11 -7 -17 0 -6 5 -5 12 2 6 6 9 14 7 17 -3 3
-9 2 -12 -2z"/>
<path d="M5623 2904 c-3 -8 -12 -13 -19 -10 -7 3 -16 1 -18 -3 -7 -10 16 -61
28 -61 4 0 25 -13 46 -30 37 -29 38 -29 55 -10 20 22 14 50 -12 50 -10 0 -26
9 -36 20 -10 12 -23 17 -34 13 -14 -5 -13 0 6 20 21 23 22 27 7 27 -9 0 -19
-7 -23 -16z"/>
<path d="M4976 2888 c-9 -37 -7 -43 9 -22 16 21 19 44 6 44 -5 0 -11 -10 -15
-22z"/>
<path d="M5410 2853 c0 -12 5 -25 10 -28 13 -8 13 15 0 35 -8 12 -10 11 -10
-7z"/>
<path d="M5490 2830 c0 -5 5 -10 11 -10 5 0 7 5 4 10 -3 6 -8 10 -11 10 -2 0
-4 -4 -4 -10z"/>
<path d="M5395 2772 c3 -24 12 -50 19 -58 8 -7 16 -19 19 -26 2 -7 8 -9 13 -5
4 4 0 21 -9 36 -9 16 -17 35 -17 43 0 8 -7 23 -16 34 -14 18 -15 16 -9 -24z"/>
<path d="M5763 2796 c7 -18 -11 -36 -29 -29 -8 3 -14 0 -14 -6 0 -16 31 -13
51 5 18 16 16 44 -3 44 -6 0 -8 -6 -5 -14z"/>
<path d="M4760 2796 c0 -2 7 -7 16 -10 8 -3 12 -2 9 4 -6 10 -25 14 -25 6z"/>
<path d="M5278 2736 c-24 -18 -23 -23 7 -28 30 -6 43 9 24 27 -12 11 -17 11
-31 1z"/>
<path d="M4884 2720 c-6 -6 -20 -13 -30 -14 -10 -2 -20 -8 -22 -14 -5 -15 25
-16 34 -1 4 7 21 9 41 6 28 -5 34 -3 31 11 -4 20 -38 28 -54 12z"/>
<path d="M5120 2704 c0 -8 9 -14 20 -14 11 0 20 6 20 13 0 7 -9 13 -20 14 -11
1 -20 -4 -20 -13z"/>
<path d="M5336 2711 c-4 -5 -2 -12 3 -15 5 -4 12 -2 15 3 4 5 2 12 -3 15 -5 4
-12 2 -15 -3z"/>
<path d="M4786 2668 c-6 -30 -2 -47 9 -36 9 9 14 68 6 68 -5 0 -11 -14 -15
-32z"/>
<path d="M4970 2689 c0 -17 40 -79 51 -79 13 0 12 3 -13 49 -21 40 -38 53 -38
30z"/>
<path d="M5100 2654 c0 -9 5 -12 12 -8 7 4 8 3 4 -5 -4 -6 -3 -17 3 -24 13
-17 11 -77 -3 -77 -6 0 -5 -4 3 -9 12 -8 12 -12 2 -24 -8 -10 -9 -17 -1 -22
15 -9 24 23 24 91 1 37 -5 68 -13 78 -17 20 -31 21 -31 0z"/>
<path d="M5441 2654 c0 -11 3 -14 6 -6 3 7 2 16 -1 19 -3 4 -6 -2 -5 -13z"/>
<path d="M5070 2640 c0 -5 5 -10 11 -10 5 0 7 5 4 10 -3 6 -8 10 -11 10 -2 0
-4 -4 -4 -10z"/>
<path d="M5075 2611 c-3 -5 -1 -12 5 -16 5 -3 10 1 10 9 0 18 -6 21 -15 7z"/>
<path d="M4710 2570 c0 -5 5 -10 10 -10 6 0 10 5 10 10 0 6 -4 10 -10 10 -5 0
-10 -4 -10 -10z"/>
<path d="M5014 2564 c3 -8 -3 -25 -14 -36 -11 -12 -20 -18 -20 -14 0 5 -7 3
-15 -4 -8 -7 -15 -20 -15 -30 0 -23 26 -45 35 -30 12 19 25 10 20 -12 -4 -14
1 -31 10 -43 16 -19 16 -19 11 7 -4 15 -2 30 4 33 5 3 10 -3 10 -14 0 -10 4
-21 10 -23 5 -1 7 -13 4 -26 -5 -18 -9 -20 -21 -10 -12 10 -14 6 -11 -28 4
-48 28 -56 53 -17 19 28 30 153 14 153 -4 0 -8 21 -7 46 0 25 -5 51 -11 57 -8
8 -11 7 -11 -3 0 -11 -3 -11 -12 -2 -18 18 -41 15 -34 -4z m36 -53 c0 -22 -26
-35 -36 -19 -4 7 -3 8 4 4 11 -6 16 6 13 27 0 4 4 7 9 7 6 0 10 -9 10 -19z"/>
<path d="M4895 2539 c-4 -6 -5 -12 -2 -15 2 -3 7 2 10 11 7 17 1 20 -8 4z"/>
<path d="M5295 2527 c-20 -16 -15 -32 14 -40 17 -4 18 -2 8 14 -10 16 -9 21 3
29 8 5 10 10 4 10 -5 0 -18 -6 -29 -13z"/>
<path d="M5345 2520 c-3 -5 -1 -10 4 -10 6 0 11 5 11 10 0 6 -2 10 -4 10 -3 0
-8 -4 -11 -10z"/>
<path d="M4910 2510 c0 -5 4 -10 9 -10 6 0 13 5 16 10 3 6 -1 10 -9 10 -9 0
-16 -4 -16 -10z"/>
<path d="M5510 2483 c-34 -16 -130 -114 -130 -133 0 -16 26 -11 42 8 8 9 21
32 29 50 8 17 19 32 24 32 6 0 18 8 26 18 9 9 25 22 35 29 27 17 15 15 -26 -4z"/>
<path d="M5247 2472 c-12 -14 -14 -25 -8 -47 l9 -30 7 33 c4 17 14 32 21 32 8
0 14 7 14 15 0 20 -23 19 -43 -3z"/>
<path d="M5360 2465 c-13 -14 -19 -25 -13 -25 6 0 16 7 23 15 7 8 19 15 26 15
8 0 14 5 14 10 0 18 -26 10 -50 -15z"/>
<path d="M4695 2470 c-3 -5 -1 -10 4 -10 6 0 11 5 11 10 0 6 -2 10 -4 10 -3 0
-8 -4 -11 -10z"/>
<path d="M5197 1917 c-11 -29 -9 -43 4 -30 6 6 9 19 7 29 -3 18 -4 18 -11 1z"/>
<path d="M5030 1841 c0 -6 4 -13 10 -16 6 -3 7 1 4 9 -7 18 -14 21 -14 7z"/>
<path d="M5170 1689 c0 -5 5 -7 10 -4 6 3 10 8 10 11 0 2 -4 4 -10 4 -5 0 -10
-5 -10 -11z"/>
<path d="M2494 2672 c-11 -10 -25 -17 -32 -14 -7 2 -16 -5 -19 -17 -3 -12 -11
-21 -19 -21 -7 0 -16 -5 -20 -12 -4 -7 -3 -8 5 -4 6 4 18 3 26 -4 11 -9 16 -7
25 9 6 12 18 21 28 21 21 0 43 32 33 48 -5 9 -13 7 -27 -6z"/>
<path d="M5397 1916 c-6 -15 1 -26 15 -26 11 0 10 27 -1 34 -5 3 -11 0 -14 -8z"/>
</g>
</svg>
